<svg width="15" height="15" viewBox="0 0 15 15" fill="none" xmlns="http://www.w3.org/2000/svg">
<path fill-rule="evenodd" clip-rule="evenodd" d="M0.353495 0.925247C0.445842 0.379163 0.922628 0 1.46802 0H1.56529C1.6108 0 1.65434 0.0186167 1.68579 0.0515233C1.71723 0.08443 1.73385 0.128767 1.73178 0.174237L1.58376 3.43062C1.57331 3.66052 1.7512 3.85532 1.98108 3.86579C2.21096 3.87622 2.40579 3.69835 2.41624 3.46845L2.56667 0.1591C2.57071 0.0700867 2.64405 0 2.73316 0H3.60017C3.68927 0 3.76263 0.0700867 3.76667 0.1591L3.9171 3.46845C3.92754 3.69835 4.12237 3.87622 4.35227 3.86579C4.58214 3.85532 4.76004 3.66052 4.74957 3.43062L4.60157 0.174237C4.5995 0.128767 4.6161 0.08443 4.64754 0.0515233C4.679 0.0186167 4.72254 0 4.76803 0H4.86514C5.4104 0 5.8871 0.378993 5.97957 0.92493C6.13387 1.83605 6.35 3.42955 6.33263 5.13359C6.323 6.08022 5.68937 6.93109 4.69484 7.15402C4.54987 7.18649 4.3974 7.21659 4.2391 7.24245L4.8531 13.0907C4.94503 13.9665 4.3996 14.8468 3.4917 14.9732C3.37443 14.9895 3.2623 15.0001 3.1668 15.0001C3.07133 15.0001 2.9592 14.9895 2.84193 14.9732C1.93402 14.8468 1.38858 13.9665 1.48054 13.0907L2.09453 7.24242C1.93625 7.21655 1.78382 7.18649 1.6389 7.15399C0.644302 6.93109 0.0106315 6.08015 0.000984862 5.13352C-0.0163718 3.42969 0.199418 1.83639 0.353495 0.925247ZM14.1667 0.282553C10.2086 0.282553 7 3.49119 7 7.44922C7 11.4073 10.2086 14.6159 14.1667 14.6159C14.4428 14.6159 14.6667 14.392 14.6667 14.1159V12.257C14.5023 12.2739 14.3355 12.2826 14.1667 12.2826C11.4973 12.2826 9.33333 10.1186 9.33333 7.44922C9.33333 4.77985 11.4973 2.61589 14.1667 2.61589C14.3355 2.61589 14.5023 2.62454 14.6667 2.64144V0.782553C14.6667 0.50641 14.4428 0.282553 14.1667 0.282553ZM14.1667 11.2826C14.3361 11.2826 14.503 11.2716 14.6667 11.2503V3.64819C14.503 3.62689 14.3361 3.61589 14.1667 3.61589C12.0496 3.61589 10.3333 5.33212 10.3333 7.44922C10.3333 9.56632 12.0496 11.2826 14.1667 11.2826Z" fill="url(#paint0_linear_110_1727)"/>
<defs>
<linearGradient id="paint0_linear_110_1727" x1="0.563668" y1="1.21222" x2="17.4587" y2="10.5229" gradientUnits="userSpaceOnUse">
<stop stop-color="#9B55FF"/>
<stop offset="1" stop-color="#0FC98A"/>
</linearGradient>
</defs>
</svg>
