<svg width="16" height="16" viewBox="0 0 16 16" fill="none" xmlns="http://www.w3.org/2000/svg">
<path fill-rule="evenodd" clip-rule="evenodd" d="M8.72923 1.3328C8.25696 1.17162 7.7486 1.17162 7.27633 1.3328C6.61536 1.55837 5.39343 2.00031 3.61046 2.74321C2.32705 3.27797 1.41673 3.6921 0.803953 3.98563C0.404193 4.17717 0.174642 4.55397 0.174642 4.95473C0.174642 5.35553 0.404193 5.73233 0.803953 5.92383C0.915726 5.9774 1.0374 6.03493 1.16943 6.0965V11.8734C0.586836 12.0794 0.169434 12.635 0.169434 13.2881C0.169434 14.1165 0.841006 14.7881 1.66943 14.7881C2.49786 14.7881 3.16943 14.1165 3.16943 13.2881C3.16943 12.635 2.75203 12.0794 2.16943 11.8734V6.54937C2.58615 6.73317 3.06456 6.93883 3.61046 7.16627C5.39343 7.90917 6.61536 8.35113 7.27633 8.5767C7.7486 8.73787 8.25696 8.73787 8.72926 8.5767C9.3902 8.35113 10.6122 7.90917 12.3951 7.16627C13.6785 6.63153 14.5888 6.2174 15.2016 5.92383C15.6014 5.73233 15.8309 5.35553 15.8309 4.95473C15.8309 4.55397 15.6014 4.17717 15.2016 3.98563C14.5888 3.6921 13.6785 3.27797 12.3951 2.74321C10.6122 2.00031 9.3902 1.55837 8.72923 1.3328ZM3.16969 7.88533L3.28997 7.93557C5.0894 8.6853 6.32846 9.13377 7.00716 9.3654C7.65396 9.58613 8.35163 9.58613 8.9984 9.3654C9.67713 9.13377 10.9162 8.6853 12.7156 7.93557L12.8358 7.88537C12.836 7.92653 12.8361 7.9682 12.8361 8.01033C12.8361 9.05777 12.7824 9.7284 12.7265 10.1439C12.6603 10.6358 12.3735 11.068 11.9207 11.305C11.2653 11.6481 9.99706 12.1215 8.00276 12.1215C6.00846 12.1215 4.7403 11.6481 4.08486 11.305C3.63203 11.068 3.34526 10.6358 3.27903 10.1439C3.22309 9.7284 3.16943 9.05777 3.16943 8.01033C3.16943 7.9682 3.16952 7.92653 3.16969 7.88533Z" fill="url(#paint0_linear_110_1775)"/>
<defs>
<linearGradient id="paint0_linear_110_1775" x1="0.771163" y1="2.309" x2="17.3028" y2="13.0577" gradientUnits="userSpaceOnUse">
<stop stop-color="#6C63FF"/>
<stop offset="1" stop-color="#43D9A2"/>
</linearGradient>
</defs>
</svg>
