<svg width="16" height="15" viewBox="0 0 16 15" fill="none" xmlns="http://www.w3.org/2000/svg">
<path fill-rule="evenodd" clip-rule="evenodd" d="M11.7998 0.516216L11.8689 0.185659C12.3354 0.113089 12.7033 0.0585625 12.9889 0.0178591C13.5804 -0.0664302 14.2255 0.141872 14.4483 0.765936C14.5254 0.982039 14.5986 1.24791 14.6558 1.57199C14.7322 2.00568 14.7484 2.36418 14.7371 2.64665C14.7149 3.20364 14.26 3.55981 13.762 3.64761L13.7568 3.64851L13.7517 3.64944L13.7465 3.65034L13.7413 3.65127L13.736 3.65217L13.7308 3.65311L13.7255 3.65404L13.7202 3.65497L13.7149 3.65591L13.7096 3.65684L13.7042 3.65777L13.6989 3.65874L13.6935 3.65967L13.688 3.66064L13.6826 3.66161L13.6771 3.66257L13.6717 3.66354L13.6662 3.66451L13.6606 3.66547L13.6551 3.66647L13.6495 3.66744L13.6439 3.66844L13.6383 3.66941L13.6327 3.67041L13.627 3.67141L13.6213 3.67241L13.6156 3.67341L13.6099 3.67444L13.6041 3.67544L13.5984 3.67644L13.5926 3.67747L13.5868 3.67851L13.5809 3.67954L13.5751 3.68057L13.5692 3.68161L13.5633 3.68264L13.5574 3.68367L13.5514 3.68474L13.5455 3.68577L13.5395 3.68684L13.5335 3.68791L13.5274 3.68897L13.5214 3.69004L13.5153 3.69111L13.5092 3.69217L13.5031 3.69327L13.4969 3.69434L13.4907 3.69544L13.4845 3.69654L13.4783 3.69764L13.4721 3.69874L13.4658 3.69984L13.4595 3.70094L13.4532 3.70204L13.4469 3.70317L13.4406 3.70427L13.4342 3.70541L13.4278 3.70654L13.4214 3.70767L13.4149 3.70881L13.4084 3.70994L13.402 3.71111L13.3954 3.71224L13.3889 3.71341L13.3823 3.71454L13.3758 3.71571L13.3692 3.71687L13.3625 3.71804L13.3559 3.71921L13.3492 3.72041L13.3425 3.72157L13.3358 3.72277L13.329 3.72394L13.3223 3.72514L13.3155 3.72634L13.3087 3.72754L13.3018 3.72874L13.295 3.72997L13.2881 3.73117L13.2812 3.73237L13.2742 3.73361L13.2673 3.73484L13.2603 3.73607L13.2533 3.73731L13.2463 3.73854L13.2392 3.73977L13.2321 3.74104L13.225 3.74227L13.2179 3.74354L13.2108 3.74481L13.2036 3.74607L13.1964 3.74734L13.1892 3.74861L13.182 3.74987L13.1747 3.75117L13.1674 3.75244L13.1601 3.75374L13.1527 3.75504L13.1454 3.75634L13.138 3.75764L13.1306 3.75894L13.1232 3.76024L13.1157 3.76157L13.1082 3.76287L13.1007 3.76421L13.0932 3.76554L13.0856 3.76687L13.078 3.76821L13.0704 3.76954L13.0628 3.77091L13.0552 3.77224L13.0475 3.77361L13.0398 3.77494L13.032 3.77631L13.0243 3.77767L13.0165 3.77904L13.0087 3.78044L13.0009 3.78181L12.993 3.78321L12.9852 3.78457L12.9773 3.78597L12.9693 3.78737L12.9614 3.78877L12.9534 3.79017L12.9454 3.79157L12.9374 3.79301L12.9293 3.79444L12.9213 3.79584L12.9132 3.79727L12.9051 3.79871L12.8969 3.80014L12.8887 3.80157L12.8805 3.80304L12.8723 3.80447L12.8641 3.80594L12.8558 3.80741L12.8475 3.80887L12.8392 3.81034L12.8308 3.81181L12.8224 3.81327L12.814 3.81474L12.8056 3.81624L12.7972 3.81774L12.7887 3.81924L12.7802 3.82074L12.7717 3.82224L12.7631 3.82374L12.7545 3.82524L12.7459 3.82677L12.7373 3.82827L12.7286 3.82981L12.72 3.83134L12.7112 3.83287L12.7025 3.83441L12.6938 3.83597L12.685 3.83751L12.6762 3.83907L12.6673 3.84064L12.6585 3.84217L12.6496 3.84374L12.6407 3.84534L12.6317 3.84691L12.6228 3.84847L12.6138 3.85007L12.6048 3.85167L12.5957 3.85324L12.5866 3.85484L12.5775 3.85644L12.5684 3.85807L12.5593 3.85967L12.5501 3.86131L12.5409 3.86291L12.5317 3.86454L12.5224 3.86617L12.5131 3.86781L12.5038 3.86944L12.4945 3.87111L12.4851 3.87274L12.4758 3.87441L12.4664 3.87607L12.4569 3.87774L12.4475 3.87941L12.438 3.88107L12.4284 3.88274L12.4189 3.88444L12.4093 3.88611L12.3997 3.88781L12.3901 3.88951L12.3805 3.89121L12.3708 3.89291L12.3611 3.89464L12.3513 3.89634L12.3416 3.89807L12.3318 3.89977L12.322 3.90151L12.3121 3.90324L12.3023 3.90501L12.2924 3.90674L12.2825 3.90847L12.2725 3.91024L12.2625 3.91201L12.2525 3.91377L12.2425 3.91554L12.2325 3.91731L12.2224 3.91907L12.2123 3.92087L12.2021 3.92264L12.192 3.92444L12.1818 3.92624L12.1716 3.92804L12.1613 3.92984L12.151 3.93167L12.1407 3.93347L12.1304 3.93531L12.12 3.93714L12.1097 3.93897L12.0993 3.94081L12.0888 3.94264L12.0783 3.94447L12.0678 3.94634L12.0573 3.94817L12.0468 3.95004L12.0362 3.95191L12.0256 3.95377L12.015 3.95564L12.0043 3.95754L11.9936 3.95941L11.9829 3.96131L11.9721 3.96321L11.9614 3.96511L11.9506 3.96701L11.9397 3.96891L11.9289 3.97084L11.918 3.97274L11.9071 3.97467L11.8961 3.97661L11.8852 3.97854L11.8742 3.98047L11.8632 3.98241L11.8521 3.98437L11.841 3.98634L11.8299 3.98827L11.8188 3.99024L11.8076 3.99221L11.7964 3.99421L11.7852 3.99617L11.7739 3.99814L11.7626 4.00014L11.7513 4.00214L11.74 4.00414L11.7286 4.00614L11.7172 4.00814L11.7058 4.01017L11.6944 4.01217L11.6829 4.01421L11.6714 4.01624L11.6598 4.01827L11.6483 4.02031L11.6367 4.02237L11.625 4.02441L11.6134 4.02647L11.6017 4.02854L11.59 4.03057L11.5782 4.03267L11.5665 4.03474L11.5547 4.03681L11.5428 4.03891L11.531 4.04101L11.5191 4.04307L11.5072 4.04517L11.4952 4.04731L11.4833 4.04941L11.4713 4.05151L11.4592 4.05364L11.4472 4.05577L11.4351 4.05791L11.423 4.06004L11.4108 4.06217L11.3986 4.06434L11.3864 4.06647L11.3742 4.06864L11.3619 4.07081L11.3496 4.07297L11.3373 4.07514L11.3249 4.07734L11.3126 4.07951L11.3001 4.08171L11.2877 4.08391L11.2752 4.08611L11.2627 4.08831L11.2502 4.09051L11.2376 4.09271L11.225 4.09494L11.2124 4.09717L11.1997 4.09941L11.1871 4.10164L11.1743 4.10387L11.1616 4.10614L11.1488 4.10837L11.136 4.11064L11.1232 4.11291L11.1103 4.11517L11.0974 4.11744L11.0845 4.11971L11.0716 4.12201L11.0586 4.12431L11.0456 4.12657L11.7998 0.516216ZM10.0622 3.94304L9.9848 4.31364L9.98116 4.31427L9.96576 4.31697L9.95033 4.31971L9.93486 4.32244L9.91936 4.32517L9.90383 4.32791L9.88826 4.33064L9.8727 4.33341L9.85706 4.33614L9.8414 4.33891L9.8257 4.34167L9.80996 4.34444L9.79423 4.34724L9.77843 4.35001L9.7626 4.35281L9.74676 4.35561L9.73086 4.35841L9.71493 4.36121L9.699 4.36404L9.683 4.36684L9.66696 4.36967L9.65093 4.37251L9.63483 4.37534L9.61873 4.37817L9.60256 4.38104L9.58636 4.38387L9.57016 4.38674L9.5539 4.38961L9.53763 4.39247L9.5213 4.39534L9.50493 4.39824L9.48856 4.40114L9.47213 4.40401L9.4557 4.40694L9.4392 4.40984L9.42266 4.41274L9.40613 4.41567L9.38953 4.41857L9.37293 4.42151L9.35626 4.42444L9.33956 4.42741L9.32286 4.43034L9.3061 4.43331L9.2893 4.43627L9.2725 4.43924L9.25563 4.44221L9.23873 4.44517L9.22183 4.44817L9.20486 4.45114L9.18786 4.45414L9.17083 4.45714L9.15376 4.46017L9.1367 4.46317L9.11956 4.46621L9.1024 4.46921L9.0852 4.47224L9.06796 4.47527L9.0507 4.47834L9.0334 4.48137L9.01606 4.48444L8.9987 4.48751L8.9813 4.49057L8.96386 4.49364L8.9464 4.49674L8.9289 4.49981L8.91136 4.50291L8.8938 4.50601L8.8762 4.50911L8.85853 4.51221L8.84086 4.51534L8.82316 4.51844L8.8054 4.52157L8.78763 4.52471L8.76983 4.52787L8.75196 4.53101L8.7341 4.53417L8.71616 4.53731L8.69823 4.54047L8.68023 4.54367L8.6622 4.54684L8.64413 4.55001L8.62606 4.55321L8.60793 4.55641L8.58976 4.55961L8.57156 4.56281L8.55333 4.56604L8.53506 4.56924L8.51676 4.57247L8.49843 4.57571L8.48006 4.57894L8.46166 4.58221L8.4432 4.58544L8.42473 4.58871L8.40623 4.59197L8.38766 4.59524L8.3691 4.59851L8.35046 4.60181L8.33183 4.60511L8.31313 4.60837L8.2944 4.61167L8.27566 4.61501L8.25686 4.61831L8.23803 4.62164L8.21916 4.62497L8.20026 4.62827L8.18133 4.63164L8.16236 4.63497L8.14333 4.63834L8.1243 4.64167L8.10523 4.64504L8.0861 4.64841L8.06696 4.65181L8.04776 4.65517L8.02853 4.65857L8.0093 4.66197L7.99 4.66537L7.97066 4.66877L7.9513 4.67217L7.9319 4.67561L7.91246 4.67904L7.893 4.68247L7.87346 4.68591L7.85393 4.68937L7.83433 4.69281L7.81473 4.69627L7.79506 4.69974L7.7754 4.70321L7.75566 4.70667L7.7359 4.71017L7.7161 4.71367L7.69626 4.71717L7.67643 4.72064L7.65663 4.72414L7.63686 4.72764L7.61713 4.73111L7.59746 4.73457L7.5778 4.73804L7.55816 4.74151L7.5386 4.74497L7.51906 4.74841L7.49953 4.75184L7.4835 4.75467L7.8586 2.95949L8.23796 1.14382L8.3152 0.774156C9.30373 0.603309 10.1281 0.465323 10.8121 0.354059L10.0622 3.94304ZM6.50036 4.57064L6.42283 4.94171L6.4112 4.94374L6.3938 4.94681L6.37643 4.94987L6.3591 4.95294L6.34183 4.95597L6.32456 4.95904L6.30733 4.96207L6.29013 4.96511L6.27296 4.96814L6.25583 4.97114L6.23873 4.97417L6.2217 4.97717L6.20466 4.98017L6.18766 4.98317L6.1707 4.98614L6.1538 4.98914L6.1369 4.99211L6.12003 4.99507L6.1032 4.99804L6.08643 5.00101L6.06966 5.00397L6.05296 5.00691L6.03626 5.00987L6.0196 5.01281L6.003 5.01574L5.9864 5.01864L5.96983 5.02157L5.95333 5.02447L5.93683 5.02741L5.9204 5.03031L5.90396 5.03317L5.88756 5.03607L5.87123 5.03897L5.8549 5.04184L5.83863 5.04471L5.82236 5.04757L5.80613 5.05044L5.78996 5.05331L5.7738 5.05614L5.7577 5.05897L5.7416 5.06181L5.72553 5.06464L5.70953 5.06747L5.69353 5.07031L5.6776 5.07311L5.66166 5.07591L5.64576 5.07871L5.6299 5.08151L5.6141 5.08431L5.5983 5.08707L5.58253 5.08987L5.56683 5.09264L5.55113 5.09541L5.53546 5.09817L5.51983 5.10091L5.50423 5.10367L5.4887 5.10641L5.47316 5.10914L5.45766 5.11187L5.4422 5.11461L5.42676 5.11734L5.41136 5.12004L5.396 5.12274L5.38066 5.12547L5.36536 5.12817L5.3501 5.13084L5.33486 5.13354L5.31966 5.13621L5.3045 5.13891L5.28936 5.14157L5.27423 5.14424L5.25916 5.14687L5.24413 5.14954L5.2291 5.15217L5.21413 5.15484L5.1992 5.15747L5.18426 5.16007L5.1694 5.16271L5.15453 5.16534L5.13973 5.16794L5.12493 5.17054L5.1102 5.17314L5.09546 5.17574L5.08076 5.17834L5.0661 5.18094L5.0515 5.18351L5.0369 5.18607L5.02233 5.18864L5.0078 5.19121L4.9933 5.19377L4.97883 5.19631L4.9644 5.19887L4.94996 5.20141L4.9356 5.20394L4.92126 5.20647L4.90696 5.20897L4.89266 5.21151L4.87843 5.21401L4.8642 5.21654L4.85003 5.21904L4.83586 5.22151L4.82176 5.22401L4.80766 5.22651L4.7936 5.22897L4.77956 5.23144L4.76556 5.23391L4.7516 5.23637L4.73766 5.23884L4.72376 5.24127L4.7099 5.24374L4.69606 5.24617L4.68223 5.24861L4.66846 5.25104L4.6547 5.25347L4.641 5.25587L4.6273 5.25831L4.61366 5.26071L4.60003 5.26311L4.58643 5.26551L4.57286 5.26791L4.55933 5.27027L4.54583 5.27267L4.53236 5.27504L4.51893 5.27741L4.5055 5.27977L4.49213 5.28214L4.4788 5.28447L4.46546 5.28684L4.45216 5.28917L4.43893 5.29151L4.4257 5.29384L4.4125 5.29617L4.39933 5.29851L4.3862 5.30081L4.3731 5.30311L4.36 5.30544L4.34696 5.30774L4.33396 5.31004L4.32096 5.31231L4.30803 5.31461L4.2951 5.31687L4.2822 5.31914L4.26933 5.32141L4.2565 5.32367L4.2437 5.32594L4.23093 5.32821L4.21816 5.33044L4.20546 5.33267L4.1928 5.33491L4.18013 5.33714L4.1675 5.33937L4.1549 5.34161L4.14236 5.34381L4.1298 5.34601L4.1173 5.34824L4.10483 5.35044L4.0924 5.35261L4.07996 5.35481L4.0676 5.35701L4.05523 5.35917L4.0429 5.36134L4.0306 5.36351L4.01833 5.36567L4.0061 5.36784L3.9939 5.36997L3.98173 5.37214L3.96956 5.37427L3.95743 5.37641L3.94536 5.37854L3.9333 5.38067L3.92203 5.38264L4.67643 1.77208L4.7526 1.40758C5.41946 1.28535 6.17836 1.14878 7.04026 0.996806L7.25496 0.959006L6.87973 2.75497L6.50036 4.57064ZM2.93885 5.19887L2.86138 5.56967L2.86085 5.56977L2.85162 5.57141L2.84242 5.57301L2.83325 5.57464L2.8241 5.57624L2.81498 5.57787L2.80588 5.57947L2.79681 5.58107L2.78777 5.58267L2.77875 5.58424L2.76976 5.58584L2.7608 5.58741L2.75186 5.58897L2.74294 5.59057L2.73406 5.59214L2.72519 5.59371L2.71636 5.59524L2.70755 5.59681L2.69877 5.59834L2.69001 5.59991L2.68128 5.60144L2.67257 5.60297L2.66389 5.60451L2.65523 5.60604L2.6466 5.60754L2.638 5.60907L2.62942 5.61057L2.62087 5.61207L2.61234 5.61361L2.60384 5.61507L2.59536 5.61657L2.58691 5.61807L2.57848 5.61957L2.57008 5.62104L2.56171 5.62251L2.55336 5.62401L2.54504 5.62547L2.53674 5.62691L2.52846 5.62837L2.52021 5.62984L2.51199 5.63127L2.50379 5.63274L2.49562 5.63417L2.48747 5.63561L2.47935 5.63704L2.47125 5.63847L2.46317 5.63991L2.45513 5.64131L2.4471 5.64274L2.4391 5.64414L2.43113 5.64554L2.42318 5.64694L2.41526 5.64834L2.40736 5.64974L2.39948 5.65111L2.39163 5.65251L2.38381 5.65387L2.37601 5.65527L2.36823 5.65664L2.36048 5.65801L2.35275 5.65937L2.34505 5.66071L2.33737 5.66207L2.32972 5.66344L2.32209 5.66477L2.31449 5.66611L2.30691 5.66744L2.29935 5.66877L2.29182 5.67011L2.28431 5.67144L2.27683 5.67274L2.26937 5.67407L2.26194 5.67537L2.25453 5.67667L2.24714 5.67797L2.23978 5.67927L2.23244 5.68057L2.22513 5.68187L2.21784 5.68314L2.21057 5.68444L2.20333 5.68571L2.19611 5.68697L2.18892 5.68824L2.18175 5.68951L2.1746 5.69077L2.16748 5.69204L2.16038 5.69327L2.15331 5.69454L2.14626 5.69577L2.13923 5.69701L2.1341 5.69791H13.5572C14.2466 5.69791 14.8482 6.17364 14.9325 6.87487C15.0215 7.61504 15.1124 8.75831 15.1124 10.3423C15.1124 11.7239 15.0433 12.7148 14.9663 13.3901C14.8739 14.2019 14.2384 14.7729 13.4332 14.8324C12.4221 14.907 10.6543 14.9867 7.71243 14.9867C4.77056 14.9867 3.00276 14.907 1.99162 14.8324C1.18644 14.7729 0.551 14.2019 0.458513 13.3901C0.381597 12.7149 0.3125 11.7239 0.3125 10.3423C0.3125 8.75831 0.403327 7.61504 0.492357 6.87487C0.55288 6.37167 0.879727 5.98461 1.31426 5.80611C0.917153 5.78467 0.53899 5.58731 0.3719 5.17961C0.264697 4.91804 0.157227 4.57564 0.0807568 4.14197C0.0236102 3.81787 0.00144682 3.54301 2.3491e-05 3.31354C-0.00408318 2.65094 0.530873 2.23456 1.11553 2.11146C1.64641 1.99968 2.46728 1.83437 3.6898 1.60469L2.93885 5.19887ZM2.90959 9.86621C2.93419 9.37521 3.2915 9.01647 3.78243 8.99087C4.0703 8.97587 4.4534 8.96484 4.9576 8.96484C5.4618 8.96484 5.8449 8.97587 6.13276 8.99087C6.6237 9.01647 6.981 9.37521 7.0056 9.86621C7.0166 10.086 7.02423 10.3573 7.02423 10.687C7.02423 11.0167 7.0166 11.288 7.0056 11.5079C6.981 11.9989 6.6237 12.3576 6.13276 12.3832C5.8449 12.3982 5.46176 12.4092 4.9576 12.4092C4.45343 12.4092 4.0703 12.3982 3.78243 12.3832C3.2915 12.3576 2.93419 11.9989 2.90959 11.5079C2.89858 11.288 2.89095 11.0167 2.89095 10.687C2.89095 10.3573 2.89858 10.086 2.90959 9.86621Z" fill="url(#paint0_linear_110_1717)"/>
<defs>
<linearGradient id="paint0_linear_110_1717" x1="2.4703" y1="2.88191" x2="14.628" y2="9.67457" gradientUnits="userSpaceOnUse">
<stop stop-color="#B388FF"/>
<stop offset="1" stop-color="#6C63FF"/>
</linearGradient>
</defs>
</svg>
