<svg width="16" height="16" viewBox="0 0 16 16" fill="none" xmlns="http://www.w3.org/2000/svg">
<g clip-path="url(#clip0_110_1795)">
<path fill-rule="evenodd" clip-rule="evenodd" d="M3.33305 2.99992C3.33305 2.24984 3.88147 1.66659 4.6664 1.66659C5.3934 1.66659 6.05587 2.09298 6.56843 2.71539C6.81987 3.02069 7.01673 3.35272 7.14877 3.65635C7.17623 3.71955 7.2001 3.77969 7.22073 3.83642C5.78077 3.84829 4.62347 3.89212 3.7253 3.94445C3.48227 3.70232 3.33305 3.36912 3.33305 2.99992ZM12.2741 3.94445C11.376 3.89212 10.2187 3.84829 8.77873 3.83642C8.79933 3.77969 8.8232 3.71955 8.8507 3.65635C8.9827 3.35272 9.1796 3.02069 9.431 2.71539C9.94357 2.09298 10.606 1.66659 11.3331 1.66659C12.118 1.66659 12.6664 2.24984 12.6664 2.99992C12.6664 3.36912 12.5172 3.70232 12.2741 3.94445ZM13.9997 2.99992C13.9997 3.38762 13.9167 3.75625 13.7678 4.08875C14.6187 4.31315 15.2579 5.02305 15.3465 5.94295C15.4178 6.68365 15.4846 7.74172 15.4975 9.16659H8.49973V4.83462C8.33663 4.83375 8.16997 4.83332 7.99973 4.83332C7.82947 4.83332 7.66283 4.83375 7.49973 4.83462V9.16659H0.501953C0.51484 7.74172 0.581623 6.68365 0.652953 5.94295C0.741543 5.02305 1.38074 4.31315 2.23161 4.08875C2.08269 3.75625 1.99972 3.38762 1.99972 2.99992C1.99972 1.54086 3.11798 0.333252 4.6664 0.333252C5.93937 0.333252 6.94357 1.07352 7.59767 1.86778C7.7461 2.048 7.88043 2.23538 7.99973 2.42458C8.11903 2.23538 8.25333 2.048 8.40177 1.86778C9.05587 1.07352 10.0601 0.333252 11.3331 0.333252C12.8815 0.333252 13.9997 1.54086 13.9997 2.99992ZM0.501953 10.1666C0.51484 11.5915 0.581623 12.6495 0.652953 13.3902C0.75455 14.4452 1.58032 15.224 2.61904 15.311C3.63047 15.3957 5.22883 15.4868 7.49973 15.4986V10.1666H0.501953ZM8.49973 15.4986C10.7706 15.4868 12.369 15.3957 13.3804 15.311C14.4191 15.224 15.2449 14.4452 15.3465 13.3902C15.4178 12.6495 15.4846 11.5915 15.4975 10.1666H8.49973V15.4986Z" fill="url(#paint0_linear_110_1795)"/>
</g>
<defs>
<linearGradient id="paint0_linear_110_1795" x1="2.953" y1="3.24959" x2="15.1283" y2="9.91992" gradientUnits="userSpaceOnUse">
<stop stop-color="#E040FB"/>
<stop offset="1" stop-color="#9B55FF"/>
</linearGradient>
<clipPath id="clip0_110_1795">
<rect width="16" height="16" fill="white"/>
</clipPath>
</defs>
</svg>
