<svg width="16" height="16" viewBox="0 0 16 16" fill="none" xmlns="http://www.w3.org/2000/svg">
<g clip-path="url(#clip0_241_37)">
<path fill-rule="evenodd" clip-rule="evenodd" d="M9.18957 2.81831C8.92603 2.82603 8.53527 2.83333 8 2.83333C7.46473 2.83333 7.07397 2.82603 6.81043 2.81831C6.42927 2.80714 6.02453 2.58242 5.88787 2.16667H5.39547C5.10963 2.16667 4.85767 2.31055 4.7251 2.54028C4.38587 3.12808 3.86737 4.085 3.40007 5.18553C4.47537 5.1755 5.991 5.16667 8 5.16667C10.0092 5.16667 11.5249 5.1755 12.6002 5.18553C12.1329 4.085 11.6144 3.12808 11.2752 2.54028C11.1426 2.31055 10.8906 2.16667 10.6048 2.16667H10.1121C9.97547 2.58242 9.57073 2.80714 9.18957 2.81831ZM10.1121 1.16667C9.97547 0.750913 9.57073 0.52619 9.18957 0.515023C8.92603 0.507303 8.53527 0.5 8 0.5C7.46473 0.5 7.07397 0.507307 6.81043 0.515023C6.42927 0.52619 6.02453 0.750913 5.88787 1.16667H5.39547C4.77313 1.16667 4.18033 1.48359 3.85897 2.04044C3.46803 2.71789 2.84213 3.87673 2.31334 5.19777C2.16461 5.1998 2.03328 5.2017 1.91889 5.2035C1.47091 5.2105 0.758003 5.39143 0.570267 6.1028C0.527087 6.2664 0.5 6.4542 0.5 6.66667C0.5 6.87913 0.527087 7.06693 0.570267 7.23053C0.758 7.9419 1.47091 8.12283 1.91889 8.12983C2.82019 8.14393 4.774 8.16667 8 8.16667C11.226 8.16667 13.1798 8.14393 14.0811 8.12983C14.5291 8.12283 15.242 7.9419 15.4297 7.23057C15.4729 7.06693 15.5 6.87913 15.5 6.66667C15.5 6.4542 15.4729 6.2664 15.4297 6.1028C15.242 5.39143 14.5291 5.2105 14.0811 5.2035C13.9668 5.2017 13.8356 5.1998 13.6869 5.1978C13.1581 3.87673 12.5322 2.71789 12.1413 2.04044C11.8199 1.48359 11.2271 1.16667 10.6048 1.16667H10.1121ZM1.72937 9.09843C1.72285 9.0489 1.71649 9.00003 1.71029 8.95183C1.78193 8.95863 1.84778 8.96203 1.90596 8.96293C2.81204 8.9771 4.7702 8.99987 8.0001 8.99987C11.23 8.99987 13.1882 8.9771 14.0942 8.96293C14.1523 8.96203 14.2181 8.95863 14.2896 8.95187C14.2834 9.00003 14.2771 9.04893 14.2705 9.09843C14.1095 10.3225 13.8528 11.9512 13.4699 13.5569C13.2436 14.5059 12.4536 15.2085 11.4799 15.3132C10.6282 15.4048 9.40557 15.4999 7.99997 15.4999C6.59433 15.4999 5.37173 15.4048 4.51997 15.3132C3.54627 15.2085 2.75632 14.5059 2.53002 13.5568C2.14715 11.9512 1.89036 10.3225 1.72937 9.09843ZM5.82847 10.5959C5.78943 10.3225 5.53617 10.1326 5.2628 10.1716C4.98943 10.2107 4.79947 10.4639 4.83853 10.7373L5.17187 13.0706C5.2109 13.344 5.46417 13.534 5.73753 13.4949C6.0109 13.4559 6.20087 13.2026 6.1618 12.9292L5.82847 10.5959ZM10.1719 10.5959C10.2109 10.3225 10.4642 10.1326 10.7375 10.1716C11.0109 10.2107 11.2009 10.4639 11.1618 10.7373L10.8285 13.0706C10.7894 13.344 10.5362 13.534 10.2628 13.4949C9.98943 13.4559 9.79947 13.2026 9.83853 12.9292L10.1719 10.5959ZM8.00017 10.1666C8.2763 10.1666 8.50017 10.3905 8.50017 10.6666V12.9999C8.50017 13.2761 8.2763 13.4999 8.00017 13.4999C7.72403 13.4999 7.50017 13.2761 7.50017 12.9999V10.6666C7.50017 10.3905 7.72403 10.1666 8.00017 10.1666Z" fill="url(#paint0_linear_241_37)"/>
</g>
<defs>
<linearGradient id="paint0_linear_241_37" x1="15.4493" y1="15.503" x2="-2.314" y2="5.51067" gradientUnits="userSpaceOnUse">
<stop stop-color="#FFC94D"/>
<stop offset="1" stop-color="#1B4DFF"/>
</linearGradient>
<clipPath id="clip0_241_37">
<rect width="16" height="16" fill="white"/>
</clipPath>
</defs>
</svg>
