<svg width="16" height="16" viewBox="0 0 16 16" fill="none" xmlns="http://www.w3.org/2000/svg">
<path fill-rule="evenodd" clip-rule="evenodd" d="M10.9132 0.00103107C12.1126 -0.0249716 13.288 0.44075 14.2568 1.40957C15.2257 2.37838 15.6914 3.55383 15.6654 4.7532C15.6395 5.947 15.128 7.1238 14.2173 8.11397C13.527 8.8645 12.6599 9.77477 11.5751 10.8673L4.7991 4.09137C5.89163 3.00655 6.8019 2.13945 7.55247 1.44915C8.54263 0.538453 9.71943 0.0269131 10.9132 0.00103107ZM4.092 4.79847C3.0069 5.89127 2.13959 6.80173 1.44915 7.55247C0.538457 8.54263 0.0269134 9.71943 0.00103109 10.9132C-0.0249719 12.1126 0.44075 13.288 1.40957 14.2568C2.37838 15.2257 3.55383 15.6914 4.7532 15.6654C5.94697 15.6395 7.1238 15.128 8.11397 14.2173C8.86467 13.5268 9.77513 12.6595 10.868 11.5744L4.092 4.79847Z" fill="url(#paint0_linear_110_1737)"/>
<defs>
<linearGradient id="paint0_linear_110_1737" x1="15.6133" y1="15.6697" x2="-2.939" y2="5.23333" gradientUnits="userSpaceOnUse">
<stop stop-color="#FFC94D"/>
<stop offset="1" stop-color="#FF6584"/>
</linearGradient>
</defs>
</svg>
