<svg width="16" height="16" viewBox="0 0 16 16" fill="none" xmlns="http://www.w3.org/2000/svg">
<g clip-path="url(#clip0_110_1815)">
<path fill-rule="evenodd" clip-rule="evenodd" d="M13.2855 0.65542C12.1972 0.57955 10.4678 0.5 8 0.5C5.53223 0.5 3.80277 0.579547 2.71447 0.65542C1.62589 0.73131 0.760497 1.55289 0.663803 2.65297C0.580727 3.5981 0.5 5.0247 0.5 7C0.5 8.9753 0.580727 10.4019 0.6638 11.347C0.760493 12.4471 1.62588 13.2687 2.71447 13.3446C3.72907 13.4153 5.30093 13.4892 7.50877 13.4989L7.5049 13.4951C7.11793 13.1081 6.8956 12.6184 6.83717 12.1148C6.5224 11.7174 6.33333 11.2139 6.33333 10.6667C6.33333 10.1194 6.5224 9.6159 6.83717 9.2185C6.8956 8.71493 7.11793 8.2252 7.5049 7.83823C7.89187 7.45127 8.3816 7.2289 8.88517 7.17047C9.28257 6.85573 9.78607 6.66667 10.3333 6.66667C10.8806 6.66667 11.3841 6.85573 11.7815 7.17047C12.2851 7.2289 12.7748 7.45127 13.1618 7.83823C13.5487 8.2252 13.7711 8.71493 13.8295 9.2185C14.1443 9.6159 14.3333 10.1194 14.3333 10.6667C14.3333 11.2139 14.1443 11.7174 13.8295 12.1148C13.7785 12.5547 13.6024 12.984 13.3007 13.3435C14.3822 13.261 15.24 12.442 15.3362 11.347C15.4193 10.4019 15.5 8.9753 15.5 7C15.5 5.0247 15.4193 3.5981 15.3362 2.65297C15.2395 1.55289 14.3741 0.73131 13.2855 0.65542ZM4 3.33333C3.6318 3.33333 3.33333 3.6318 3.33333 4C3.33333 4.3682 3.6318 4.66667 4 4.66667H11C11.3682 4.66667 11.6667 4.3682 11.6667 4C11.6667 3.6318 11.3682 3.33333 11 3.33333H4ZM4 6C3.6318 6 3.33333 6.29847 3.33333 6.66667C3.33333 7.03487 3.6318 7.33333 4 7.33333H6C6.3682 7.33333 6.66667 7.03487 6.66667 6.66667C6.66667 6.29847 6.3682 6 6 6H4ZM7.33333 10.6667C7.33333 11.0857 7.52663 11.4596 7.82893 11.704C7.78803 12.0906 7.9157 12.4917 8.21203 12.788C8.43297 13.0089 8.7122 13.1361 9.00023 13.1696C9.00233 13.7993 9.01973 14.5277 9.06673 15.3016C9.08377 15.5817 9.4194 15.7097 9.62193 15.5155L10.1603 14.9993C10.257 14.9065 10.4097 14.9065 10.5064 14.9993L11.0447 15.5155C11.2473 15.7097 11.5829 15.5817 11.5999 15.3016C11.6469 14.5277 11.6643 13.7993 11.6664 13.1696C11.9545 13.1361 12.2337 13.0089 12.4547 12.788C12.751 12.4917 12.8787 12.0906 12.8377 11.704C13.14 11.4596 13.3333 11.0857 13.3333 10.6667C13.3333 10.2476 13.14 9.87373 12.8377 9.6293C12.8787 9.2427 12.751 8.84167 12.4547 8.54533C12.1584 8.24903 11.7573 8.12137 11.3707 8.16227C11.1263 7.85997 10.7524 7.66667 10.3333 7.66667C9.9143 7.66667 9.5404 7.85997 9.29597 8.16227C8.90937 8.12137 8.50833 8.24903 8.21203 8.54533C7.9157 8.84163 7.78803 9.2427 7.82893 9.6293C7.52663 9.87373 7.33333 10.2476 7.33333 10.6667ZM11.1667 10.6667C11.1667 11.1269 10.7936 11.5 10.3333 11.5C9.8731 11.5 9.5 11.1269 9.5 10.6667C9.5 10.2064 9.8731 9.83333 10.3333 9.83333C10.7936 9.83333 11.1667 10.2064 11.1667 10.6667Z" fill="url(#paint0_linear_110_1815)"/>
</g>
<defs>
<linearGradient id="paint0_linear_110_1815" x1="1.07633" y1="1.721" x2="18.2317" y2="11.3203" gradientUnits="userSpaceOnUse">
<stop stop-color="#9B55FF"/>
<stop offset="1" stop-color="#0FC98A"/>
</linearGradient>
<clipPath id="clip0_110_1815">
<rect width="16" height="16" fill="white"/>
</clipPath>
</defs>
</svg>
