<svg width="16" height="16" viewBox="0 0 16 16" fill="none" xmlns="http://www.w3.org/2000/svg">
<g clip-path="url(#clip0_110_1835)">
<path fill-rule="evenodd" clip-rule="evenodd" d="M14.0572 0.508216C13.5851 0.488529 12.5907 0.485989 11.4588 0.718196C10.791 0.855183 10.61 1.6579 11.0529 2.10078L11.5322 2.5801C11.3418 2.7529 11.0974 2.97831 10.8215 3.24113C10.2005 3.8328 9.40767 4.62563 8.71123 5.44083C8.42007 5.03667 8.05357 4.54437 7.6672 4.06643C7.20307 3.49233 6.37067 3.34293 5.73553 3.7735C4.92373 4.32387 3.24682 5.58643 1.3727 7.72967C1.25891 7.8598 1.14439 7.9932 1.02929 8.12987C0.732813 8.48187 0.777847 9.0076 1.12987 9.30407C1.4819 9.60053 2.00761 9.5555 2.30408 9.20347C2.41248 9.07477 2.52028 8.94923 2.62734 8.8268C4.26057 6.95903 5.72193 5.8167 6.49777 5.2724C6.85013 5.71637 7.18277 6.168 7.44427 6.53397C8.0429 7.37173 9.26137 7.37457 9.8959 6.62073C10.5571 5.8352 11.343 5.0463 11.9712 4.44783C12.266 4.16697 12.5232 3.9308 12.7122 3.76007L13.2329 4.2808C13.6758 4.72367 14.4785 4.5427 14.6155 3.87493C14.8477 2.74296 14.8451 1.74856 14.8255 1.27652C14.808 0.858039 14.4756 0.525666 14.0572 0.508216ZM11.2545 14.2419C11.2106 13.6381 11.1667 12.5621 11.1667 10.6667C11.1667 8.77127 11.2106 7.69527 11.2545 7.0914C11.3033 6.42147 11.7927 5.89873 12.4885 5.85613C12.71 5.8426 12.9876 5.83333 13.3333 5.83333C13.679 5.83333 13.9567 5.8426 14.1781 5.85613C14.8739 5.89873 15.3634 6.42147 15.4121 7.0914C15.4561 7.69527 15.5 8.77127 15.5 10.6667C15.5 12.5621 15.4561 13.6381 15.4121 14.2419C15.3634 14.9119 14.8739 15.4346 14.1781 15.4772C13.9567 15.4907 13.679 15.5 13.3333 15.5C12.9876 15.5 12.71 15.4907 12.4885 15.4772C11.7927 15.4346 11.3033 14.9119 11.2545 14.2419ZM0.556177 14.4233C0.524287 14.1088 0.5 13.6553 0.5 13C0.5 12.3447 0.524287 11.8912 0.556177 11.5767C0.623457 10.913 1.15577 10.5329 1.73875 10.5134C1.9678 10.5057 2.2709 10.5 2.66667 10.5C3.06244 10.5 3.36553 10.5057 3.59457 10.5134C4.17757 10.5329 4.70987 10.913 4.77717 11.5767C4.80903 11.8912 4.83333 12.3447 4.83333 13C4.83333 13.6553 4.80903 14.1088 4.77717 14.4233C4.70987 15.087 4.17757 15.4671 3.59457 15.4866C3.36553 15.4943 3.06244 15.5 2.66667 15.5C2.2709 15.5 1.9678 15.4943 1.73875 15.4866C1.15578 15.4671 0.623457 15.087 0.556177 14.4233ZM5.83333 12C5.83333 13.1371 5.8662 13.8547 5.90417 14.3058C5.9616 14.9884 6.48427 15.4546 7.1445 15.4835C7.36557 15.4932 7.6464 15.5 8 15.5C8.3536 15.5 8.63443 15.4932 8.8555 15.4835C9.51573 15.4546 10.0384 14.9884 10.0958 14.3058C10.1338 13.8547 10.1667 13.1371 10.1667 12C10.1667 10.8629 10.1338 10.1453 10.0958 9.6942C10.0384 9.01157 9.51573 8.54543 8.8555 8.51647C8.63443 8.50677 8.3536 8.5 8 8.5C7.6464 8.5 7.36557 8.50677 7.1445 8.51647C6.48427 8.54543 5.9616 9.01157 5.90417 9.6942C5.8662 10.1453 5.83333 10.8629 5.83333 12Z" fill="url(#paint0_linear_110_1835)"/>
</g>
<defs>
<linearGradient id="paint0_linear_110_1835" x1="15.4493" y1="15.503" x2="-2.314" y2="5.51067" gradientUnits="userSpaceOnUse">
<stop stop-color="#FF9F1C"/>
<stop offset="1" stop-color="#FF3D6B"/>
</linearGradient>
<clipPath id="clip0_110_1835">
<rect width="16" height="16" fill="white"/>
</clipPath>
</defs>
</svg>
