<svg width="16" height="16" viewBox="0 0 16 16" fill="none" xmlns="http://www.w3.org/2000/svg">
<g clip-path="url(#clip0_110_1845)">
<path fill-rule="evenodd" clip-rule="evenodd" d="M0.166504 3.68315C0.166504 1.74114 1.7408 0.166748 3.68287 0.166748C5.406 0.166748 6.94594 1.44554 7.07354 3.2823C7.08914 3.50725 7.10454 3.75478 7.1191 4.02548C7.39997 4.02821 7.6933 4.02971 7.9994 4.02971C8.30547 4.02971 8.59884 4.02821 8.87967 4.02548C8.89424 3.75478 8.90964 3.50725 8.92527 3.2823C9.05284 1.44554 10.5928 0.166748 12.3159 0.166748C14.258 0.166748 15.8323 1.74114 15.8323 3.68315C15.8323 5.40625 14.5535 6.94628 12.7167 7.07388C12.4918 7.08948 12.2443 7.10488 11.9737 7.11945C11.9709 7.40032 11.9694 7.69372 11.9694 7.99981C11.9694 8.30591 11.9709 8.59928 11.9737 8.88015C12.2443 8.89472 12.4918 8.91012 12.7167 8.92575C14.5535 9.05332 15.8323 10.5933 15.8323 12.3165C15.8323 14.2585 14.258 15.8329 12.3159 15.8329C10.5928 15.8329 9.05284 14.5541 8.92527 12.7173C8.90964 12.4923 8.89424 12.2448 8.87967 11.9741C8.59884 11.9714 8.30547 11.9699 7.9994 11.9699C7.6933 11.9699 7.39997 11.9714 7.1191 11.9741C7.10454 12.2448 7.08914 12.4923 7.07354 12.7173C6.94594 14.5541 5.406 15.8329 3.68287 15.8329C1.7408 15.8329 0.166504 14.2585 0.166504 12.3165C0.166504 10.5934 1.44527 9.05332 3.28209 8.92575C3.507 8.91012 3.75447 8.89472 4.02514 8.88015C4.02787 8.59928 4.02937 8.30591 4.02937 7.99981C4.02937 7.69372 4.02787 7.40032 4.02514 7.11945C3.75447 7.10488 3.507 7.08948 3.28209 7.07388C1.44527 6.94628 0.166504 5.40625 0.166504 3.68315ZM4.57677 4.05001C4.58467 4.19205 4.53167 4.33075 4.4311 4.43135C4.3305 4.53192 4.1918 4.58491 4.04977 4.57701C3.8752 4.56731 3.7148 4.55718 3.56827 4.54702C3.36617 4.53298 3.19388 4.44348 3.06901 4.30415C2.94385 4.16448 2.86442 3.97171 2.86442 3.75265C2.86442 3.26216 3.26206 2.86466 3.7524 2.86466C3.97144 2.86466 4.1642 2.94407 4.30387 3.0692C4.4432 3.19405 4.53274 3.36635 4.54677 3.56845C4.55694 3.71501 4.56707 3.87541 4.57677 4.05001ZM6.93017 6.93042C6.9337 7.27151 6.9356 7.62798 6.9356 8.00008C6.9356 8.37222 6.9337 8.72868 6.93017 9.06978C7.27127 9.06625 7.62774 9.06435 7.99984 9.06435C8.37197 9.06435 8.72844 9.06625 9.06954 9.06978C9.066 8.72868 9.0641 8.37222 9.0641 8.00008C9.0641 7.62798 9.066 7.27151 9.06954 6.93042C8.7284 6.93395 8.37197 6.93585 7.99984 6.93585C7.62774 6.93585 7.27127 6.93395 6.93017 6.93042ZM4.57677 11.9497C4.58467 11.8077 4.53167 11.669 4.4311 11.5684C4.3305 11.4678 4.1918 11.4148 4.04977 11.4227C3.8752 11.4324 3.7148 11.4425 3.56827 11.4527C3.36617 11.4667 3.19388 11.5562 3.06901 11.6956C2.94385 11.8352 2.86442 12.028 2.86442 12.2471C2.86442 12.7376 3.26206 13.1351 3.7524 13.1351C3.97144 13.1351 4.1642 13.0557 4.30387 12.9305C4.4432 12.8057 4.53274 12.6334 4.54677 12.4313C4.55694 12.2847 4.56707 12.1243 4.57677 11.9497ZM11.5682 11.5684C11.4676 11.669 11.4146 11.8077 11.4225 11.9497C11.4322 12.1243 11.4423 12.2847 11.4525 12.4313C11.4665 12.6334 11.556 12.8057 11.6954 12.9305C11.835 13.0557 12.0278 13.1351 12.2468 13.1351C12.7372 13.1351 13.1348 12.7376 13.1348 12.2471C13.1348 12.028 13.0554 11.8352 12.9302 11.6956C12.8054 11.5562 12.6331 11.4667 12.431 11.4527C12.2844 11.4425 12.124 11.4324 11.9495 11.4227C11.8074 11.4148 11.6687 11.4678 11.5682 11.5684ZM11.5682 4.43135C11.4676 4.33075 11.4146 4.19205 11.4225 4.05001C11.4322 3.87541 11.4423 3.71501 11.4525 3.56845C11.4665 3.36635 11.556 3.19405 11.6954 3.0692C11.835 2.94407 12.0278 2.86466 12.2468 2.86466C12.7372 2.86466 13.1348 3.26216 13.1348 3.75265C13.1348 3.97171 13.0554 4.16448 12.9302 4.30415C12.8054 4.44348 12.6331 4.53298 12.431 4.54702C12.2844 4.55718 12.124 4.56731 11.9495 4.57701C11.8074 4.58491 11.6687 4.53192 11.5682 4.43135Z" fill="url(#paint0_linear_110_1845)"/>
</g>
<defs>
<linearGradient id="paint0_linear_110_1845" x1="2.72717" y1="3.17941" x2="15.3802" y2="10.1897" gradientUnits="userSpaceOnUse">
<stop stop-color="#E040FB"/>
<stop offset="1" stop-color="#9B55FF"/>
</linearGradient>
<clipPath id="clip0_110_1845">
<rect width="16" height="16" fill="white"/>
</clipPath>
</defs>
</svg>
