<svg width="16" height="16" viewBox="0 0 16 16" fill="none" xmlns="http://www.w3.org/2000/svg">
<g clip-path="url(#clip0_110_1755)">
<path fill-rule="evenodd" clip-rule="evenodd" d="M7.09507 0.830308C7.67173 0.577398 8.32827 0.577398 8.90493 0.830308C11.7744 2.08874 13.8701 4.00233 14.7498 4.89223C15.1412 5.28813 15.3515 5.80703 15.383 6.34227C15.4305 7.14733 15.5 8.6105 15.5 10.2808C15.5 11.4975 15.4631 12.604 15.4248 13.4261C15.374 14.5143 14.5061 15.3695 13.4195 15.4099C12.2666 15.4528 10.4428 15.4999 8 15.4999C5.55723 15.4999 3.73337 15.4528 2.58046 15.4099C1.49393 15.3695 0.625977 14.5143 0.575217 13.4261C0.53687 12.604 0.5 11.4975 0.5 10.2808C0.5 8.6105 0.569497 7.14733 0.616977 6.34227C0.648543 5.80703 0.858807 5.28813 1.25018 4.89223C2.12995 4.00233 4.2256 2.08874 7.09507 0.830308ZM5.33333 12C4.96513 12 4.66667 12.2985 4.66667 12.6667C4.66667 13.0349 4.96513 13.3333 5.33333 13.3333H10.6667C11.0349 13.3333 11.3333 13.0349 11.3333 12.6667C11.3333 12.2985 11.0349 12 10.6667 12H5.33333Z" fill="url(#paint0_linear_110_1755)"/>
</g>
<defs>
<linearGradient id="paint0_linear_110_1755" x1="2.952" y1="3.49833" x2="15.013" y2="10.244" gradientUnits="userSpaceOnUse">
<stop stop-color="#E040FB"/>
<stop offset="1" stop-color="#9B55FF"/>
</linearGradient>
<clipPath id="clip0_110_1755">
<rect width="16" height="16" fill="white"/>
</clipPath>
</defs>
</svg>
