<svg width="16" height="16" viewBox="0 0 16 16" fill="none" xmlns="http://www.w3.org/2000/svg">
<path fill-rule="evenodd" clip-rule="evenodd" d="M6.98267 0.044096C5.33366 0.221875 3.83803 0.911378 2.65769 1.9506L5.43483 4.7277C6.58206 3.39156 7.098 1.69997 6.98267 0.044096ZM1.95059 2.65771C0.911371 3.83803 0.221868 5.33366 0.0440947 6.98267C1.69996 7.098 3.39156 6.58203 4.7277 5.43483L1.95059 2.65771ZM0 7.982C0.0361573 9.9064 0.766281 11.661 1.95059 13.0061L7.12483 7.83193L5.43663 6.14373C3.8929 7.49677 1.92652 8.10953 0 7.982ZM2.65769 13.7133C4.0028 14.8975 5.7574 15.6277 7.68173 15.6638C7.55416 13.7373 8.16693 11.7709 9.52 10.2271L7.83193 8.53903L2.65769 13.7133ZM8.68106 15.6198C10.3301 15.442 11.8258 14.7525 13.0062 13.7133L10.2289 10.936C9.08163 12.2722 8.5657 13.9639 8.68106 15.6198ZM13.7133 13.0062C14.7525 11.8258 15.442 10.3301 15.6198 8.68106C13.9639 8.5657 12.2722 9.08163 10.936 10.2289L13.7133 13.0062ZM15.6639 7.68176C15.6277 5.7574 14.8976 4.00276 13.7133 2.65769L8.53903 7.83193L10.2271 9.52C11.7709 8.16693 13.7373 7.55416 15.6639 7.68176ZM13.0062 1.95059L7.83193 7.12483L6.14373 5.43663C7.49677 3.8929 8.10953 1.92653 7.982 0C9.9064 0.0361537 11.661 0.766278 13.0062 1.95059Z" fill="url(#paint0_linear_110_1707)"/>
<defs>
<linearGradient id="paint0_linear_110_1707" x1="2.56036" y1="3.01236" x2="15.2117" y2="10.022" gradientUnits="userSpaceOnUse">
<stop stop-color="#E040FB"/>
<stop offset="1" stop-color="#9B55FF"/>
</linearGradient>
</defs>
</svg>
