<svg width="15" height="15" viewBox="0 0 15 15" fill="none" xmlns="http://www.w3.org/2000/svg">
<path fill-rule="evenodd" clip-rule="evenodd" d="M7.5 0C5.03117 0 3.30147 0.0774167 2.21361 0.151193C1.12715 0.224877 0.258643 1.04129 0.16059 2.14161C0.0786233 3.06143 0 4.43773 0 6.33333C0 8.22893 0.07862 9.60523 0.16059 10.5251C0.258643 11.6254 1.12714 12.4418 2.21361 12.5155C2.71429 12.5494 3.3509 12.5842 4.13293 12.6117V13.8318C4.13293 14.8388 5.32313 15.3728 6.07533 14.7032L8.3667 12.6634C10.3794 12.6479 11.8306 12.5803 12.7864 12.5155C13.8729 12.4418 14.7414 11.6254 14.8394 10.5251C14.9214 9.60523 15 8.22893 15 6.33333C15 4.43773 14.9214 3.06143 14.8394 2.14161C14.7414 1.04129 13.8729 0.224877 12.7864 0.151193C11.6985 0.0774167 9.96883 0 7.5 0ZM4.97327 6.85743C4.914 7.62147 4.53333 8.07147 3.794 8.48393C3.6339 8.57323 3.56553 8.77037 3.66403 8.92497C3.75563 9.06877 3.88073 9.24133 4.0267 9.38083C4.1525 9.50107 4.33607 9.52563 4.5024 9.47447C5.68413 9.1109 6.72697 8.2697 6.8257 6.85783H6.83333V5.1815C6.83327 4.7993 6.82837 4.4996 6.82167 4.268C6.8096 3.85037 6.50867 3.5335 6.0912 3.51637C5.85953 3.50683 5.55723 3.5 5.16667 3.5C4.7761 3.5 4.4738 3.50683 4.2421 3.51637C3.82467 3.53353 3.52377 3.85033 3.51167 4.26793C3.5049 4.50143 3.5 4.80413 3.5 5.19083C3.5 5.54897 3.5042 5.83507 3.5102 6.06087C3.52197 6.50427 3.8538 6.83693 4.2972 6.8482C4.47947 6.85283 4.70233 6.8563 4.97327 6.85743ZM8.46067 8.48393C9.2 8.07147 9.58067 7.62147 9.63993 6.85743C9.369 6.8563 9.14613 6.85283 8.96387 6.8482C8.52047 6.83693 8.18863 6.50427 8.17687 6.06087C8.17087 5.83507 8.16667 5.54897 8.16667 5.19083C8.16667 4.80413 8.17157 4.50143 8.17833 4.26793C8.19043 3.85033 8.49133 3.53353 8.90877 3.51637C9.14047 3.50683 9.44277 3.5 9.83333 3.5C10.2239 3.5 10.5262 3.50683 10.7579 3.51637C11.1753 3.5335 11.4763 3.85037 11.4883 4.268C11.495 4.4996 11.4999 4.7993 11.5 5.1815V6.85783H11.4924C11.3936 8.2697 10.3508 9.1109 9.16907 9.47447C9.00273 9.52563 8.81917 9.50107 8.69337 9.38083C8.5474 9.24133 8.4223 9.06877 8.3307 8.92497C8.2322 8.77037 8.30057 8.57323 8.46067 8.48393Z" fill="url(#paint0_linear_110_1766)"/>
<defs>
<linearGradient id="paint0_linear_110_1766" x1="2.452" y1="2.88467" x2="14.5673" y2="9.597" gradientUnits="userSpaceOnUse">
<stop stop-color="#E040FB"/>
<stop offset="1" stop-color="#9B55FF"/>
</linearGradient>
</defs>
</svg>
