<svg width="16" height="16" viewBox="0 0 16 16" fill="none" xmlns="http://www.w3.org/2000/svg">
<g clip-path="url(#clip0_110_1825)">
<path fill-rule="evenodd" clip-rule="evenodd" d="M7.16667 1.33333C7.16667 0.873097 7.53977 0.5 8 0.5C8.46023 0.5 8.83333 0.873097 8.83333 1.33333V2.30165C11.456 1.72257 12.74 1.46057 13.2528 1.35936C13.3918 1.33193 13.5702 1.32042 13.7508 1.3711C13.945 1.4256 14.146 1.55611 14.2578 1.79514C14.2988 1.883 14.3328 1.98245 14.3577 2.0946C14.3827 2.20675 14.3942 2.3112 14.3943 2.40819C14.3946 2.67207 14.268 2.87555 14.1153 3.0073C13.9733 3.12984 13.8068 3.19518 13.6693 3.22933C13.4886 3.27423 13.2105 3.3422 12.8089 3.43773C13.0139 4.03063 13.289 4.8361 13.5758 5.70353C14.0221 7.05337 14.5093 8.59107 14.7968 9.706C15.2224 9.8818 15.538 10.3172 15.4408 10.8488C15.1299 12.5494 13.6305 13.8333 11.8331 13.8333C10.0356 13.8333 8.53627 12.5494 8.22537 10.8488C8.12813 10.3168 8.44417 9.88123 8.87017 9.70567C9.15767 8.59077 9.6449 7.05323 10.0911 5.70353C10.3047 5.0573 10.5119 4.4455 10.6885 3.93033C10.0056 4.0862 9.1929 4.2696 8.23067 4.48393C6.96497 4.76587 5.9564 4.9864 5.16067 5.15777C5.36353 5.74517 5.63087 6.5285 5.90913 7.3702C6.3554 8.72003 6.84267 10.2577 7.13017 11.3727C7.55573 11.5485 7.8713 11.9838 7.77413 12.5154C7.46323 14.216 5.96387 15.5 4.1664 15.5C2.36895 15.5 0.869604 14.216 0.558707 12.5154C0.461457 11.9835 0.77751 11.5479 1.2035 11.3723C1.49101 10.2574 1.97823 8.7199 2.42444 7.3702C2.63662 6.7284 2.84245 6.1205 3.01819 5.60753C2.92241 5.62683 2.84136 5.643 2.77372 5.65633C2.63472 5.68377 2.45625 5.69527 2.27566 5.6446C2.08151 5.5901 1.88051 5.4596 1.76872 5.22057C1.72763 5.1327 1.69372 5.03323 1.66873 4.9211C1.64375 4.80897 1.63225 4.7045 1.63216 4.6075C1.63192 4.34363 1.75853 4.14017 1.9112 4.0084C2.05319 3.88587 2.21968 3.82053 2.35718 3.78637C2.89009 3.654 4.26897 3.32105 7.16667 2.67227V1.33333ZM2.62828 11.2072C3.06767 11.1834 3.5836 11.1667 4.1664 11.1667C4.74957 11.1667 5.26577 11.1834 5.7053 11.2073C5.4294 10.217 5.03057 8.96043 4.6432 7.78873C4.47663 7.28493 4.31393 6.8019 4.1668 6.36983C4.01963 6.8019 3.85693 7.28493 3.69037 7.78873C3.30302 8.96043 2.9042 10.217 2.62828 11.2072ZM10.295 9.54057C10.7343 9.51673 11.2503 9.5 11.8331 9.5C12.4162 9.5 12.9324 9.51673 13.372 9.5406C13.0961 8.55037 12.6972 7.29377 12.3099 6.12207C12.1433 5.61827 11.9806 5.13523 11.8335 4.70317C11.6863 5.13523 11.5236 5.61827 11.3571 6.12207C10.9697 7.29377 10.5709 8.55033 10.295 9.54057Z" fill="url(#paint0_linear_110_1825)"/>
</g>
<defs>
<linearGradient id="paint0_linear_110_1825" x1="15.408" y1="15.503" x2="-2.30433" y2="5.59433" gradientUnits="userSpaceOnUse">
<stop stop-color="#FF9F1C"/>
<stop offset="1" stop-color="#FF3D6B"/>
</linearGradient>
<clipPath id="clip0_110_1825">
<rect width="16" height="16" fill="white"/>
</clipPath>
</defs>
</svg>
