<svg width="16" height="16" viewBox="0 0 16 16" fill="none" xmlns="http://www.w3.org/2000/svg">
<path fill-rule="evenodd" clip-rule="evenodd" d="M0.290742 3.90706C0.124756 4.45242 0.0319136 5.03414 0.0212758 5.63818C0.00808053 6.38744 0 7.23105 0 8.17365V15.4507C0 15.7449 0.238533 15.9834 0.532781 15.9834H8.29715C10.4031 15.9834 12.0276 15.9357 13.2426 15.8749C15.1745 15.7782 16.5533 13.9459 15.7824 12.0699C14.8721 9.85461 13.5626 7.9665 12.2552 6.6565C11.2895 5.68879 9.98933 5.24079 8.6941 5.15146C7.39252 5.06171 5.33787 4.97263 2.30872 4.97263H1.1413C1.19511 4.59907 1.28719 4.24236 1.41383 3.90706H2.30865C5.35829 3.90706 7.43766 3.99675 8.76734 4.08842C9.46653 4.13666 10.1859 4.27767 10.8762 4.53933C10.3796 1.95053 8.30826 0.000834696 5.50711 3.5567e-06C5.50654 4.82373e-09 5.50598 0 5.50541 0C2.9365 0 0.981056 1.639 0.290742 3.90706ZM2.91263 7.45894C3.26353 7.45894 3.58153 7.66559 3.72407 7.98629L4.73532 10.2616C4.89178 10.6136 4.63477 11.0108 4.24886 11.0108H4.24396C3.37386 11.0107 2.07829 11.0106 1.59842 11.0108C1.5513 11.0109 1.50611 10.9921 1.47279 10.9588C1.43947 10.9255 1.42075 10.8803 1.42075 10.8332V7.63653C1.42075 7.53847 1.50026 7.45894 1.59834 7.45894H2.91263ZM10.1727 8.08219C9.63642 7.59384 8.90921 7.45894 8.23076 7.45894H6.10916C5.70293 7.45894 5.44616 7.89536 5.64343 8.25047L6.92328 10.5542C7.07978 10.8358 7.37607 11.0108 7.69869 11.0108C8.04063 11.0108 8.45211 11.0107 8.88892 11.0106H8.89319C9.61717 11.0104 10.4101 11.0102 11.0705 11.0103C11.5825 11.0105 11.9356 10.4769 11.6654 10.0122C11.3399 9.45239 10.8223 8.67375 10.1727 8.08219ZM1.95356 12.7868H12.254C12.5482 12.7868 12.7868 13.0253 12.7868 13.3195C12.7868 13.6138 12.5482 13.8523 12.254 13.8523H1.95356C1.65931 13.8523 1.42078 13.6138 1.42078 13.3195C1.42078 13.0253 1.65931 12.7868 1.95356 12.7868Z" fill="url(#paint0_linear_110_1747)"/>
<defs>
<linearGradient id="paint0_linear_110_1747" x1="15.9458" y1="15.9866" x2="-2.9921" y2="5.32249" gradientUnits="userSpaceOnUse">
<stop stop-color="#FFC94D"/>
<stop offset="1" stop-color="#1B4DFF"/>
</linearGradient>
</defs>
</svg>
