<svg width="16" height="16" viewBox="0 0 16 16" fill="none" xmlns="http://www.w3.org/2000/svg">
<g clip-path="url(#clip0_110_1805)">
<path fill-rule="evenodd" clip-rule="evenodd" d="M12.5805 3.23581C12.8029 2.20154 12.5117 1.02808 11.4632 0.422679C11.1443 0.238585 10.7366 0.347835 10.5525 0.666695C10.3684 0.985559 10.4776 1.39329 10.7965 1.57738C11.0826 1.74257 11.2703 2.06391 11.3133 2.44158C10.8709 2.10884 10.3701 1.89285 9.84317 1.81556C8.8982 1.67696 7.93844 1.99605 7.18984 2.7617C6.93244 3.02496 6.93717 3.44705 7.20044 3.70445C7.4637 3.96185 7.88577 3.95712 8.14317 3.69385C8.60914 3.21728 9.1486 3.06129 9.64967 3.13478C9.92247 3.1748 10.2036 3.28622 10.4689 3.47555C7.9147 4.12805 5.99844 6.37519 5.84334 9.09385C4.71397 9.37252 3.80434 9.86642 3.11099 10.5356C2.27288 11.3445 1.78624 12.3754 1.59489 13.5046C1.8504 13.42 2.08798 13.306 2.26286 13.1715C2.88324 12.6945 3.79644 12.6694 4.44447 13.2157C4.80384 13.5187 5.23637 13.6664 5.66654 13.6664C6.09674 13.6664 6.52924 13.5187 6.8886 13.2157C7.52927 12.6756 8.4705 12.6756 9.11114 13.2157C9.4705 13.5187 9.90304 13.6664 10.3332 13.6664C10.7634 13.6664 11.1959 13.5187 11.5553 13.2157C12.2033 12.6694 13.1165 12.6945 13.7369 13.1715C13.9153 13.3086 14.1589 13.4245 14.4202 13.5096C14.2593 12.394 13.8434 11.3645 13.0708 10.551C12.2479 9.68465 11.0681 9.11315 9.4917 8.91285C9.55984 7.61985 9.87024 6.48069 10.3179 5.65312C10.6371 5.06299 10.9979 4.67559 11.359 4.46809C11.8099 5.14939 11.7645 6.08172 11.2245 6.66409C10.9742 6.93409 10.9901 7.35589 11.2601 7.60622C11.5301 7.85659 11.9519 7.84065 12.2022 7.57065C12.9054 6.81235 13.1314 5.77979 12.9286 4.82922C13.5627 5.24139 13.9998 5.95385 13.9998 6.78405C13.9998 7.15222 14.2983 7.45072 14.6665 7.45072C15.0347 7.45072 15.3332 7.15222 15.3332 6.78405C15.3332 5.03735 14.1193 3.64002 12.5805 3.23581ZM13.2289 13.8321C12.9022 13.5809 12.4249 13.5726 12.0924 13.8529C11.5797 14.2851 10.956 14.4997 10.3332 14.4997C9.7103 14.4997 9.0866 14.2851 8.57397 13.8529C8.24364 13.5744 7.75604 13.5744 7.4257 13.8529C6.91307 14.2851 6.28937 14.4997 5.6665 14.4997C5.04364 14.4997 4.41994 14.2851 3.9073 13.8529C3.5748 13.5726 3.09748 13.5809 2.77076 13.8321C2.20782 14.265 1.32356 14.4997 0.666504 14.4997C0.390361 14.4997 0.166504 14.7236 0.166504 14.9997C0.166504 15.2759 0.390361 15.4997 0.666504 15.4997H15.3332C15.6093 15.4997 15.8332 15.2759 15.8332 14.9997C15.8332 14.7236 15.6093 14.4997 15.3332 14.4997C14.6761 14.4997 13.7918 14.265 13.2289 13.8321Z" fill="url(#paint0_linear_110_1805)"/>
</g>
<defs>
<linearGradient id="paint0_linear_110_1805" x1="0.768504" y1="1.55892" x2="18.3405" y2="11.7893" gradientUnits="userSpaceOnUse">
<stop stop-color="#9B55FF"/>
<stop offset="1" stop-color="#0FC98A"/>
</linearGradient>
<clipPath id="clip0_110_1805">
<rect width="16" height="16" fill="white"/>
</clipPath>
</defs>
</svg>
