<svg width="12" height="12" viewBox="0 0 12 12" fill="none" xmlns="http://www.w3.org/2000/svg">
<g clip-path="url(#clip0_3_863)">
<path fill-rule="evenodd" clip-rule="evenodd" d="M9.36368 0.87276C9.36975 1.03742 9.37445 1.23531 9.37495 1.45978C9.59352 1.47221 9.78957 1.48515 9.96377 1.49796C10.7829 1.55819 11.427 2.1818 11.4976 3.00605C11.5614 3.7522 11.625 4.89773 11.625 6.5C11.625 8.1023 11.5614 9.2478 11.4976 9.99395C11.427 10.8182 10.7829 11.4418 9.96377 11.5021C9.14692 11.5621 7.8499 11.625 6 11.625C4.1501 11.625 2.85308 11.5621 2.03623 11.5021C1.21712 11.4418 0.572947 10.8182 0.502437 9.99395C0.438607 9.2478 0.375 8.10227 0.375 6.5C0.375 4.89773 0.43861 3.7522 0.502437 3.00605C0.572947 2.1818 1.21712 1.55819 2.03623 1.49796C2.21043 1.48515 2.40647 1.47221 2.62505 1.45978C2.62555 1.23531 2.63025 1.03742 2.63632 0.87276C2.65037 0.491883 2.8954 0.157781 3.30555 0.13368C3.39763 0.128271 3.5035 0.125 3.625 0.125C3.7465 0.125 3.85237 0.128271 3.94445 0.13368C4.3546 0.157781 4.59963 0.491883 4.61368 0.87276C4.6191 1.01949 4.62343 1.1926 4.62465 1.3874C5.04397 1.37956 5.50195 1.375 6 1.375C6.49805 1.375 6.95603 1.37956 7.37535 1.3874C7.3766 1.1926 7.3809 1.01949 7.38632 0.87276C7.40037 0.491883 7.6454 0.157781 8.05555 0.13368C8.14762 0.128271 8.2535 0.125 8.375 0.125C8.4965 0.125 8.60238 0.128271 8.69445 0.13368C9.1046 0.157781 9.34963 0.491883 9.36368 0.87276ZM8.28323 6.06065C8.41897 5.85367 8.4527 5.5832 8.30065 5.38788C8.15567 5.20162 7.98077 5.06463 7.81997 4.9664C7.5483 4.80043 7.21803 4.9273 7.04098 5.1919C6.14733 6.5275 5.68265 7.21747 5.68265 7.21747C5.68265 7.21747 5.3679 6.88312 4.97078 6.42875C4.72942 6.15263 4.32287 6.08182 4.05185 6.3289C3.9523 6.41967 3.8492 6.52462 3.7539 6.64167C3.57333 6.86347 3.61077 7.1769 3.79125 7.39875C4.3055 8.03092 4.7652 8.5228 5.11355 8.8712C5.48213 9.23982 6.05582 9.2013 6.37385 8.7883C6.7788 8.26245 7.40443 7.40062 8.28323 6.06065Z" fill="url(#paint0_linear_3_863)"/>
</g>
<defs>
<linearGradient id="paint0_linear_3_863" x1="12.6" y1="14.0607" x2="-2.79675" y2="3.3615" gradientUnits="userSpaceOnUse">
<stop stop-color="#B388FF"/>
<stop offset="1" stop-color="#3EA8FF"/>
</linearGradient>
<clipPath id="clip0_3_863">
<rect width="12" height="12" fill="white"/>
</clipPath>
</defs>
</svg>
