<svg width="12" height="12" viewBox="0 0 12 12" fill="none" xmlns="http://www.w3.org/2000/svg">
<path fill-rule="evenodd" clip-rule="evenodd" d="M0.756343 2.8332C0.751145 3.34273 0.748607 3.92393 0.750777 4.57425C0.429172 4.43053 0.172958 4.14913 0.104855 3.75402C0.048155 3.42508 0 2.97038 0 2.375C0 1.77963 0.048155 1.32493 0.104855 0.995975C0.203915 0.421252 0.701007 0.087145 1.21841 0.067325C1.95667 0.03904 3.38195 0 5.625 0C7.86805 0 9.29333 0.03904 10.0316 0.0673225C10.549 0.087145 11.0461 0.421252 11.1452 0.995975C11.2018 1.32493 11.25 1.77963 11.25 2.375C11.25 2.97038 11.2018 3.42508 11.1452 3.75402C11.0771 4.14913 10.8208 4.4305 10.4992 4.57425C10.5014 3.9239 10.4989 3.3427 10.4937 2.83317C10.4841 1.89575 9.77385 1.08734 8.80725 1.00182C8.0006 0.930447 6.94815 0.875 5.625 0.875C4.30185 0.875 3.24937 0.930447 2.44275 1.00182C1.47614 1.08734 0.765905 1.89578 0.756343 2.8332ZM8.16785 11.1437C8.00542 11.1594 7.82475 11.1744 7.625 11.188V1.67249C8.04155 1.69342 8.413 1.71986 8.74115 1.7489C9.3124 1.79944 9.73795 2.27773 9.74368 2.84083C9.75965 4.40338 9.75045 6.64812 9.65598 9.50107C9.62845 10.3321 9.03857 11.06 8.16785 11.1437ZM5.875 1.62568V11.2496C5.7887 11.2502 5.7006 11.2505 5.61067 11.2505C4.49347 11.2505 3.66207 11.2014 3.07382 11.1446C2.20617 11.0608 1.62171 10.3352 1.59431 9.5088C1.49959 6.65217 1.49035 4.4048 1.5063 2.84085C1.51205 2.27775 1.93758 1.79944 2.50885 1.7489C3.29243 1.67957 4.32277 1.625 5.625 1.625C5.70948 1.625 5.7928 1.62523 5.875 1.62568ZM3.58308 7.25H3.91692C4.2023 7.25 4.45662 7.4491 4.4793 7.75058C4.491 7.9062 4.5 8.11158 4.5 8.375C4.5 8.63842 4.491 8.8438 4.4793 8.99942C4.45662 9.3009 4.2023 9.5 3.91692 9.5H3.58308C3.2977 9.5 3.04338 9.3009 3.0207 8.99942C3.009 8.8438 3 8.63842 3 8.375C3 8.11158 3.009 7.9062 3.0207 7.75058C3.04338 7.4491 3.2977 7.25 3.58308 7.25Z" fill="url(#paint0_linear_3_856)"/>
<defs>
<linearGradient id="paint0_linear_3_856" x1="1.839" y1="2.1635" x2="10.9255" y2="7.19775" gradientUnits="userSpaceOnUse">
<stop stop-color="#B388FF"/>
<stop offset="1" stop-color="#6C63FF"/>
</linearGradient>
</defs>
</svg>
