<svg width="12" height="12" viewBox="0 0 12 12" fill="none" xmlns="http://www.w3.org/2000/svg">
<path fill-rule="evenodd" clip-rule="evenodd" d="M8.3722 0.408436C8.76275 0.0178986 9.35735 -0.15527 9.85087 0.172441C10.0897 0.331014 10.3712 0.552379 10.6784 0.859619C10.9856 1.16686 11.207 1.44834 11.3656 1.68713C11.6933 2.18064 11.5201 2.77526 11.1296 3.16579L10.646 3.64934C10.6309 3.61939 10.6147 3.58839 10.5976 3.55641C10.394 3.17699 10.0462 2.66076 9.4617 2.0763C8.87725 1.49185 8.36102 1.14399 7.9816 0.940396C7.94963 0.923239 7.91862 0.907116 7.88867 0.891971L8.3722 0.408436ZM7.32293 1.45776C7.3996 1.48839 7.50235 1.53431 7.62708 1.60124C7.94165 1.77004 8.39872 2.07387 8.93145 2.60661C9.4642 3.13934 9.76802 3.59641 9.93682 3.91099C10.0037 4.03571 10.0497 4.13846 10.0803 4.21511L6.4506 7.84479C6.29778 7.99761 6.09947 8.10664 5.87442 8.12836C5.5422 8.16044 4.9286 8.18926 3.9807 8.12296C3.67775 8.10176 3.4363 7.86031 3.4151 7.55736C3.3488 6.60944 3.37762 5.99584 3.4097 5.66364C3.43142 5.43856 3.54045 5.24026 3.69327 5.08744L7.32293 1.45776ZM3.92835 8.87119C4.91375 8.94011 5.56915 8.91139 5.9465 8.87496C6.37355 8.83374 6.7272 8.62891 6.98093 8.37519L10.7318 4.62436C10.7432 5.08446 10.75 5.59659 10.75 6.16309C10.75 7.88779 10.6866 9.10874 10.6245 9.89071C10.5592 10.7133 9.92525 11.3473 9.10262 11.4126C8.32065 11.4747 7.0997 11.5381 5.375 11.5381C3.6503 11.5381 2.42935 11.4747 1.64737 11.4126C0.824753 11.3473 0.19074 10.7133 0.12546 9.89071C0.0634025 9.10874 0 7.88779 0 6.16309C0 4.43839 0.0634025 3.21744 0.125457 2.43546C0.19074 1.61284 0.82475 0.978826 1.64737 0.913546C2.42935 0.851489 3.6503 0.788086 5.375 0.788086C5.94152 0.788086 6.45367 0.794926 6.91377 0.806314L3.16293 4.55719C2.9092 4.81091 2.7044 5.16456 2.66315 5.59161C2.62672 5.96896 2.598 6.62436 2.66692 7.60976C2.7142 8.28566 3.25245 8.82391 3.92835 8.87119Z" fill="url(#paint0_linear_3_804)"/>
<defs>
<linearGradient id="paint0_linear_3_804" x1="11.499" y1="11.5406" x2="-2.16475" y2="3.85434" gradientUnits="userSpaceOnUse">
<stop stop-color="#FFC94D"/>
<stop offset="1" stop-color="#FF6584"/>
</linearGradient>
</defs>
</svg>
