<svg width="12" height="12" viewBox="0 0 12 12" fill="none" xmlns="http://www.w3.org/2000/svg">
<g clip-path="url(#clip0_3_859)">
<path fill-rule="evenodd" clip-rule="evenodd" d="M2.53142 0.25657C3.29145 0.191476 4.44765 0.125 6 0.125C6.2737 0.125 6.53508 0.127067 6.78415 0.130828C6.98957 0.13393 7.20635 0.170575 7.4132 0.263112C7.83957 0.453855 8.67797 0.897643 9.51517 1.73484C10.3286 2.54827 10.7706 3.36282 10.9699 3.7993C11.066 4.00962 11.1051 4.23043 11.1095 4.4408C11.1193 4.91075 11.125 5.42963 11.125 6C11.125 8.00163 11.0541 9.369 10.9871 10.2144C10.9219 11.0358 10.2902 11.673 9.46857 11.7434C8.70855 11.8085 7.55235 11.875 6 11.875C4.44765 11.875 3.29145 11.8085 2.53142 11.7434C1.70977 11.673 1.07807 11.0358 1.01294 10.2144C0.945913 9.369 0.875 8.00163 0.875 6C0.875 3.99837 0.945913 2.631 1.01294 1.78555C1.07807 0.96414 1.70977 0.32694 2.53142 0.25657ZM3.25 7.25C2.97385 7.25 2.75 7.47385 2.75 7.75C2.75 8.02615 2.97385 8.25 3.25 8.25H8.75C9.02615 8.25 9.25 8.02615 9.25 7.75C9.25 7.47385 9.02615 7.25 8.75 7.25H3.25ZM2.75 9.75C2.75 9.47385 2.97385 9.25 3.25 9.25H8.75C9.02615 9.25 9.25 9.47385 9.25 9.75C9.25 10.0261 9.02615 10.25 8.75 10.25H3.25C2.97385 10.25 2.75 10.0261 2.75 9.75ZM6.87078 2.76178C7.39385 2.65815 7.93523 2.63068 8.46755 2.62943C8.75615 2.62873 8.996 2.83107 8.99572 3.14602C8.99525 3.68232 8.96768 4.2275 8.86333 4.75435C8.82987 4.92323 8.71705 5.04732 8.57785 5.1056C8.4042 5.1783 8.1896 5.1485 8.0384 4.99732L7.71607 4.67497C7.6994 4.69027 7.68245 4.7059 7.66528 4.72185C7.35888 5.0062 6.98283 5.3846 6.67798 5.77865L6.67405 5.78368L6.64467 5.82065C6.3021 6.25198 5.62698 6.17922 5.38417 5.6848L5.36275 5.6412L5.35997 5.63543L5.35862 5.63255L4.8096 4.45832C4.55127 4.67762 4.1069 5.10255 3.66215 5.75012C3.50582 5.97775 3.19457 6.03555 2.96692 5.87922C2.7393 5.72287 2.6815 5.41162 2.83785 5.184C3.60623 4.06518 4.3856 3.51388 4.4695 3.45622L4.4713 3.45497C4.85993 3.18225 5.4127 3.3323 5.5976 3.7827L6.1143 4.88777C6.41005 4.5416 6.7272 4.22815 6.98502 3.98887L7.00835 3.96727L6.6278 3.58672C6.49055 3.44948 6.4531 3.25927 6.50227 3.09542C6.5502 2.93567 6.6814 2.7993 6.87078 2.76178Z" fill="url(#paint0_linear_3_859)"/>
</g>
<defs>
<linearGradient id="paint0_linear_3_859" x1="11.0902" y1="11.8775" x2="-1.78775" y2="5.558" gradientUnits="userSpaceOnUse">
<stop stop-color="#FFC94D"/>
<stop offset="1" stop-color="#FF6584"/>
</linearGradient>
<clipPath id="clip0_3_859">
<rect width="12" height="12" fill="white"/>
</clipPath>
</defs>
</svg>
