<svg width="12" height="12" viewBox="0 0 12 12" fill="none" xmlns="http://www.w3.org/2000/svg">
<path d="M5.38233 0.82654C5.0354 0.306157 4.44735 -0.0134855 3.8133 0.000437043C2.925 0.0199445 2.19582 0.0688745 1.65495 0.118015C0.835405 0.192475 0.202678 0.829517 0.135972 1.65053C0.06952 2.46842 0 3.76625 0 5.6166C0 7.49442 0.0716 8.80317 0.13893 9.6188C0.204993 10.419 0.813425 11.043 1.62079 11.1098C2.40895 11.1751 3.6871 11.2416 5.625 11.2416C7.5629 11.2416 8.84105 11.1751 9.6292 11.1098C10.4366 11.043 11.045 10.419 11.1111 9.6188C11.1784 8.80317 11.25 7.49442 11.25 5.6166C11.25 4.6488 11.1923 3.7968 11.132 3.16977C11.0518 2.33585 10.3942 1.69852 9.56335 1.63237C8.77927 1.56994 7.59118 1.50298 6.0298 1.4929C5.90167 1.49207 5.78335 1.42809 5.71438 1.32461L5.38233 0.82654Z" fill="url(#paint0_linear_3_852)"/>
<defs>
<linearGradient id="paint0_linear_3_852" x1="0.43225" y1="0.90845" x2="13.2497" y2="8.13795" gradientUnits="userSpaceOnUse">
<stop stop-color="#6C63FF"/>
<stop offset="1" stop-color="#43D9A2"/>
</linearGradient>
</defs>
</svg>
