<svg width="349" height="95" viewBox="0 0 349 95" fill="none" xmlns="http://www.w3.org/2000/svg">
<path d="M21.9783 9.60277C21.9827 6.71759 21.9827 4.0279 21.9827 1.18372C25.9799 1.18372 29.7252 1.18372 33.7101 1.18372C34.1041 4.26128 33.7264 7.39004 34.0121 10.5794C39.0045 11.4657 43.6351 13.0134 47.7811 16.2447C49.8759 13.9452 51.8669 11.7595 53.9899 9.42905C52.365 7.96044 50.9118 6.64712 49.1235 5.03088C56.1344 3.3123 62.7382 1.69351 69.6468 0C68.8716 7.00674 68.1302 13.707 67.3425 20.8265C65.4937 19.2876 63.9431 17.9969 62.2354 16.5755C60.8855 18.0921 59.6587 19.5556 58.3386 20.9294C57.0559 22.2642 55.7582 23.6061 54.3256 24.7709C50.6546 27.7556 46.5194 28.095 42.2326 26.4006C39.9828 25.5113 37.8725 24.2741 35.6783 23.2384C31.3618 21.2008 26.8659 20.9381 22.3202 22.2117C20.9139 22.6057 19.5127 23.3275 18.3474 24.2128C15.0464 26.7208 15.0522 31.3974 18.2519 34.0335C20.3728 35.7809 22.9627 36.3287 25.5731 36.8096C29.921 37.6105 34.2921 38.3085 38.6063 39.2628C41.6737 39.9414 44.6061 41.0852 47.2441 42.8899C51.3742 45.7152 53.7746 49.6377 54.4782 54.53C55.3293 60.4466 54.2528 65.9229 50.108 70.4914C47.2966 73.5901 43.7591 75.5477 39.7547 76.6373C37.9754 77.1214 36.1374 77.39 34.1966 77.7826C33.6481 79.2947 34.0268 80.9395 33.9577 82.5446C33.8878 84.1712 33.9423 85.8032 33.9423 87.5887C29.9126 87.5887 26.1012 87.5887 22.1116 87.5887C21.7169 84.3922 21.9878 81.2056 21.9943 77.7652C14.8866 76.8867 8.65918 74.3261 3.99683 68.8041C2.34793 66.8511 0.812517 64.7936 0 62.0602C3.49434 60.2398 6.943 58.4432 10.693 56.4896C10.9442 56.9201 11.1414 57.22 11.3016 57.5385C14.0641 63.0284 18.8596 65.4885 24.6368 66.4502C29.0457 67.1841 33.3347 66.7817 37.3668 64.7528C40.8135 63.0185 42.168 59.8494 41.159 56.1577C40.5258 53.8409 38.9628 52.2296 36.8105 51.4634C34.1372 50.5118 31.3535 49.8339 28.578 49.2148C24.8206 48.3766 21.001 47.8115 17.2545 46.9313C14.247 46.2246 11.5026 44.8118 8.9524 43.0534C6.58928 41.424 4.85557 39.2922 3.90101 36.5753C2.22816 31.8138 2.17257 27.0394 4.08059 22.34C5.78508 18.1418 9.06318 15.3952 13.0447 13.5547C15.3567 12.4859 17.8806 11.8673 20.3263 11.1007C21.0743 10.8662 21.9365 10.8864 21.9783 9.60277Z" fill="#6D67F3"/>
<path d="M89.2051 77.4685C83.5677 77.5708 78.8656 75.5127 74.3294 72.3458C73.8248 74.3115 74.1601 76.1363 74.0921 77.9275C74.0216 79.781 74.0735 81.6391 74.0711 83.4952C74.0688 85.3513 74.0645 87.2074 74.0631 89.0635C74.0617 90.9097 74.0628 92.7559 74.0628 94.9104C69.9861 95.0606 66.0433 94.9961 61.8249 94.8996C61.8249 93.9761 61.8231 93.2164 61.8252 92.4566C61.8554 81.3928 61.884 70.329 61.9181 59.2652C61.9266 56.485 61.8765 53.7018 61.9852 50.9251C62.3755 40.9462 68.8974 32.018 79.8469 29.2766C86.5175 27.6064 93.0386 27.9527 99.2925 30.8825C104.4 33.2752 108.153 37.0135 110.127 42.4306C112.636 49.3183 112.912 56.2184 110.388 63.1386C107.746 70.3797 102.226 74.4704 95.1081 76.6197C93.2896 77.1688 91.3142 77.1986 89.2051 77.4685ZM90.9666 65.4781C92.9331 64.9251 94.6422 63.9426 96.0566 62.4557C99.48 58.8569 100.507 54.555 99.601 49.7826C98.2334 42.5782 90.8756 38.0796 83.8544 40.0613C76.6286 42.1007 72.5046 49.2203 74.4424 56.4089C76.1755 62.8382 82.0271 67.5515 90.9666 65.4781Z" fill="#6D66F2"/>
<path d="M273.066 60.7438C270.571 70.8736 261.78 76.3221 252.957 77.3382C247.406 77.9774 241.999 77.3476 236.907 74.7629C230.193 71.3545 226.202 65.8846 224.74 58.6096C223.5 52.438 224.051 46.4207 226.891 40.6704C230.301 33.7668 235.954 29.968 243.37 28.7499C248.945 27.8342 254.341 28.5413 259.235 31.6425C260.055 32.1624 260.823 32.7665 261.683 33.3804C261.841 33.0517 262 32.876 261.999 32.7017C261.951 27.137 261.851 21.5725 261.839 16.0079C261.832 12.8507 262.804 11.5651 265.861 10.8678C268.414 10.2854 271.023 9.95012 273.78 9.47565C273.856 10.3175 273.948 10.8564 273.948 11.3954C273.966 25.6058 274.01 39.8164 273.945 54.0264C273.935 56.2122 273.412 58.3955 273.066 60.7438ZM238.437 60.0472C238.671 60.4054 238.906 60.7632 239.139 61.122C243.147 67.2902 253.904 67.4784 258.509 62.0933C262.661 57.2388 263.068 49.5925 259.16 44.4548C254.442 38.2531 245.043 37.8664 239.862 43.661C235.871 48.125 235.282 54.1013 238.437 60.0472Z" fill="#6D66F3"/>
<path d="M117.616 53.8547C117.678 48.884 118.513 44.313 120.875 40.0794C124.307 33.9283 129.635 30.4622 136.374 28.9679C141.508 27.8295 146.604 28.0699 151.596 29.7126C158.761 32.0704 163.108 37.057 165.058 44.2825C166.113 48.1926 166.273 52.1664 166.18 56.1725C166.172 56.5121 166.029 56.8486 165.919 57.3099C154.047 57.3099 142.216 57.3099 130.192 57.3099C130.588 59.8348 131.71 61.733 133.493 63.2672C136.087 65.4983 139.159 66.6187 142.522 66.7304C146.758 66.8711 150.75 65.9975 154.168 63.2461C155.492 62.1794 155.641 62.2104 156.914 63.2848C159.091 65.1217 161.24 66.9904 163.531 68.9571C163.111 69.4541 162.804 69.9064 162.413 70.2689C153.032 78.9656 137.533 80.0207 127.093 72.6596C122.371 69.3301 119.59 64.7201 118.414 59.1175C118.064 57.4481 117.881 55.7437 117.616 53.8547ZM137.876 47.5142C143.272 47.5142 148.669 47.5142 154.259 47.5142C153.69 44.1537 152.113 41.7287 149.388 40.335C144.542 37.857 139.606 37.8785 134.946 40.8475C132.63 42.3222 130.993 44.4455 130.409 47.5123C132.9 47.5123 135.174 47.5123 137.876 47.5142Z" fill="#6D66F2"/>
<path d="M316.375 40.1556C318.578 45.7482 320.704 51.1935 322.837 56.6361C323.033 57.1347 323.271 57.6164 323.672 58.5136C326.091 53.5638 327.688 48.7156 329.607 44.0086C331.541 39.2643 333.321 34.4572 335.185 29.6346C339.52 29.6346 343.709 29.6346 348.052 29.6346C347.914 30.1429 347.84 30.6107 347.664 31.0357C343.553 40.916 339.417 50.7858 335.316 60.6702C332.173 68.2477 329.085 75.8482 325.945 83.4274C324.525 86.8547 323.066 90.2667 321.555 93.6546C321.329 94.1622 320.729 94.8496 320.288 94.8605C316.454 94.9558 312.617 94.9154 308.381 94.9154C309.219 92.8191 309.886 91.0508 310.627 89.3141C312.588 84.7196 314.557 80.1285 316.576 75.5596C317.128 74.3103 317.186 73.2223 316.636 71.9037C311.639 59.9229 306.71 47.9138 301.783 35.904C300.979 33.9435 300.281 31.9393 299.473 29.7923C300.122 29.6877 300.516 29.5719 300.911 29.5686C304.125 29.5415 307.339 29.5267 310.552 29.5263C312.417 29.5261 312.405 29.5456 313.084 31.3853C314.147 34.2629 315.228 37.1337 316.375 40.1556Z" fill="#6C66F1"/>
<path d="M184.892 59.0684C184.892 64.8406 184.892 70.3989 184.892 76.1725C180.769 76.1725 176.827 76.1725 172.814 76.1725C172.814 74.9048 172.823 73.7794 172.813 72.6542C172.76 67.0151 172.613 61.3749 172.68 55.7373C172.722 52.2528 172.747 48.7085 173.383 45.3037C174.525 39.1922 177.734 34.187 183.399 31.3655C190.923 27.6186 198.72 27.1711 206.566 30.6151C212.521 33.2291 215.541 38.1185 216.959 44.1667C217.378 45.9545 217.506 47.8436 217.519 49.688C217.579 58.2563 217.552 66.8252 217.551 75.3938C217.55 75.5973 217.485 75.8007 217.422 76.1606C213.464 76.1606 209.512 76.1606 205.424 76.1606C205.424 75.2392 205.424 74.4017 205.424 73.5643C205.422 66.2812 205.482 58.9972 205.375 51.7156C205.348 49.8999 205.004 48.0148 204.415 46.2959C202.938 41.9909 199.719 39.7928 195.366 39.8025C191.028 39.8122 187.265 42.3904 185.926 46.5533C185.345 48.3624 185.087 50.3113 184.943 52.2165C184.776 54.4178 184.897 56.6408 184.892 59.0684Z" fill="#6D66F3"/>
<path d="M294.38 52.6365C294.38 60.5566 294.38 68.2623 294.38 76.2226C290.392 76.4093 286.514 76.3214 282.508 76.2549C282.455 75.5879 282.373 75.0393 282.373 74.4907C282.365 55.2163 282.364 35.9419 282.363 16.6674C282.363 16.2391 282.361 15.8105 282.377 15.3826C282.466 12.9446 283.287 11.7365 285.644 10.9315C288.358 10.0043 291.193 9.76814 294.351 9.58002C294.419 23.9573 294.373 38.1899 294.38 52.6365Z" fill="#6B64F2"/>
</svg>
