<svg width="120" height="33" viewBox="0 0 120 33" fill="none" xmlns="http://www.w3.org/2000/svg">
<path d="M7.57757 3.33571C7.5791 2.33349 7.5791 1.39917 7.5791 0.41119C8.95723 0.41119 10.2485 0.41119 11.6224 0.41119C11.7583 1.48024 11.6281 2.56708 11.7265 3.67495C13.4478 3.98283 15.0443 4.52045 16.4738 5.64292C17.196 4.84413 17.8825 4.08489 18.6144 3.27537C18.0542 2.76522 17.5532 2.30901 16.9366 1.74757C19.3538 1.15059 21.6306 0.588274 24.0125 0C23.7452 2.43393 23.4897 4.76138 23.2181 7.2345C22.5806 6.69994 22.046 6.2516 21.4573 5.75784C20.9919 6.28466 20.5689 6.79302 20.1137 7.27025C19.6715 7.73391 19.2241 8.20005 18.7301 8.60466C17.4645 9.64145 16.0387 9.75935 14.5608 9.17076C13.7851 8.86185 13.0575 8.43211 12.301 8.07232C10.8128 7.36452 9.26272 7.27328 7.69545 7.71568C7.21061 7.85254 6.7275 8.10327 6.32574 8.41081C5.18764 9.28198 5.18964 10.9065 6.2928 11.8222C7.02405 12.4292 7.91697 12.6195 8.81698 12.7865C10.316 13.0648 11.8231 13.3072 13.3105 13.6387C14.3681 13.8744 15.3791 14.2718 16.2886 14.8986C17.7126 15.8801 18.5402 17.2427 18.7828 18.9421C19.0762 20.9973 18.7051 22.8996 17.276 24.4866C16.3067 25.563 15.0871 26.243 13.7065 26.6215C13.093 26.7897 12.4593 26.883 11.7902 27.0193C11.601 27.5446 11.7316 28.116 11.7078 28.6735C11.6837 29.2385 11.7025 29.8054 11.7025 30.4257C10.3131 30.4257 8.99907 30.4257 7.62356 30.4257C7.48748 29.3153 7.58087 28.2084 7.5831 27.0133C5.13253 26.7081 2.98548 25.8187 1.37801 23.9005C0.809509 23.2221 0.280136 22.5073 0 21.5579C1.20477 20.9255 2.39378 20.3014 3.6867 19.6228C3.77329 19.7723 3.84127 19.8765 3.89653 19.9872C4.84895 21.8942 6.50234 22.7487 8.49416 23.0828C10.0143 23.3377 11.493 23.1979 12.8832 22.4932C14.0715 21.8907 14.5385 20.7899 14.1906 19.5075C13.9723 18.7027 13.4334 18.143 12.6914 17.8768C11.7697 17.5463 10.8099 17.3108 9.85301 17.0957C8.55753 16.8046 7.24062 16.6083 5.94895 16.3025C4.91202 16.0571 3.96582 15.5663 3.08657 14.9555C2.27182 14.3895 1.67408 13.6489 1.34497 12.7052C0.768216 11.0511 0.749051 9.39266 1.40689 7.76023C1.99455 6.30193 3.12477 5.34783 4.4975 4.70848C5.29462 4.33722 6.1648 4.12234 7.008 3.85604C7.26592 3.77459 7.56316 3.7816 7.57757 3.33571Z" fill="#6D67F3"/>
<path d="M30.7557 26.9102C28.8121 26.9457 27.191 26.2308 25.627 25.1307C25.453 25.8136 25.5686 26.4475 25.5451 27.0697C25.5209 27.7135 25.5387 28.359 25.5379 29.0037C25.5371 29.6485 25.5356 30.2932 25.5352 30.938C25.5347 31.5793 25.5351 32.2206 25.5351 32.969C24.1295 33.0212 22.7701 32.9988 21.3157 32.9653C21.3157 32.6445 21.3151 32.3806 21.3158 32.1166C21.3262 28.2734 21.3361 24.4302 21.3478 20.587C21.3508 19.6212 21.3335 18.6544 21.371 17.6898C21.5055 14.2235 23.7541 11.1221 27.5293 10.1698C29.8291 9.58965 32.0775 9.70991 34.2337 10.7276C35.9946 11.5588 37.2887 12.8574 37.9691 14.7391C38.8343 17.1317 38.9292 19.5286 38.059 21.9324C37.1483 24.4478 35.2452 25.8688 32.791 26.6154C32.164 26.8061 31.4829 26.8165 30.7557 26.9102ZM31.3631 22.7451C32.0411 22.553 32.6303 22.2117 33.118 21.6952C34.2983 20.4451 34.6523 18.9508 34.34 17.293C33.8685 14.7904 31.3317 13.2277 28.911 13.9161C26.4197 14.6245 24.9978 17.0977 25.6659 19.5948C26.2635 21.8281 28.281 23.4654 31.3631 22.7451Z" fill="#6D66F2"/>
<path d="M94.1464 21.1006C93.2864 24.6193 90.2556 26.512 87.2133 26.865C85.2995 27.087 83.4353 26.8682 81.6798 25.9704C79.3649 24.7864 77.9888 22.8863 77.4848 20.3592C77.0573 18.2154 77.2473 16.1252 78.2266 14.1277C79.4023 11.7296 81.3512 10.41 83.9081 9.98685C85.8302 9.66878 87.6904 9.91438 89.3778 10.9916C89.6607 11.1723 89.9253 11.3821 90.2219 11.5953C90.2764 11.4812 90.3314 11.4201 90.3308 11.3596C90.3142 9.42658 90.28 7.49365 90.2758 5.56065C90.2734 4.46395 90.6086 4.01737 91.6623 3.77516C92.5425 3.57283 93.4421 3.45637 94.3927 3.29155C94.4191 3.58398 94.4505 3.77118 94.4507 3.95843C94.4567 8.89469 94.4721 13.831 94.4496 18.7672C94.4461 19.5264 94.2658 20.2849 94.1464 21.1006ZM82.2074 20.8586C82.2881 20.983 82.369 21.1073 82.4493 21.2319C83.8311 23.3746 87.5398 23.44 89.1276 21.5693C90.559 19.883 90.6994 17.2269 89.352 15.4423C87.7255 13.288 84.4848 13.1536 82.6987 15.1665C81.3226 16.7172 81.1194 18.7932 82.2074 20.8586Z" fill="#6D66F3"/>
<path d="M40.5511 18.7075C40.5726 16.9808 40.8603 15.393 41.6748 13.9224C42.8581 11.7857 44.695 10.5816 47.0185 10.0626C48.7886 9.66712 50.5456 9.75064 52.2666 10.3212C54.7368 11.1403 56.2357 12.8725 56.908 15.3824C57.2719 16.7407 57.3268 18.121 57.2947 19.5126C57.292 19.6306 57.2427 19.7475 57.205 19.9077C53.1115 19.9077 49.0327 19.9077 44.8872 19.9077C45.0236 20.7848 45.4106 21.4442 46.0253 21.9771C46.9193 22.7521 47.9787 23.1413 49.1382 23.1801C50.5984 23.229 51.975 22.9256 53.1532 21.9698C53.61 21.5992 53.6613 21.61 54.1002 21.9832C54.8506 22.6213 55.5918 23.2704 56.3815 23.9536C56.2369 24.1263 56.1308 24.2834 55.996 24.4093C52.7618 27.4303 47.418 27.7968 43.8185 25.2397C42.1905 24.0832 41.2318 22.4818 40.8264 20.5356C40.7057 19.9558 40.6425 19.3637 40.5511 18.7075ZM47.5362 16.505C49.3967 16.505 51.2573 16.505 53.1848 16.505C52.9887 15.3377 52.4448 14.4953 51.5053 14.0112C49.8347 13.1504 48.1329 13.1578 46.526 14.1892C45.7278 14.7015 45.1632 15.439 44.9618 16.5043C45.8207 16.5043 46.6047 16.5043 47.5362 16.505Z" fill="#6D66F2"/>
<path d="M109.079 13.9488C109.838 15.8916 110.571 17.7831 111.307 19.6737C111.374 19.8469 111.456 20.0142 111.594 20.3259C112.428 18.6064 112.979 16.9223 113.64 15.2872C114.307 13.6392 114.921 11.9694 115.564 10.2942C117.058 10.2942 118.503 10.2942 120 10.2942C119.952 10.4707 119.927 10.6332 119.866 10.7809C118.449 14.213 117.023 17.6414 115.609 21.075C114.525 23.7072 113.46 26.3474 112.378 28.9802C111.888 30.1707 111.385 31.3559 110.865 32.5328C110.786 32.7091 110.58 32.9479 110.427 32.9517C109.106 32.9848 107.783 32.9708 106.322 32.9708C106.611 32.2426 106.841 31.6283 107.097 31.025C107.773 29.4291 108.452 27.8342 109.148 26.2471C109.338 25.8131 109.358 25.4352 109.168 24.9772C107.446 20.8154 105.746 16.6438 104.047 12.472C103.77 11.791 103.53 11.0947 103.251 10.349C103.475 10.3126 103.611 10.2724 103.747 10.2712C104.855 10.2618 105.963 10.2567 107.071 10.2566C107.714 10.2565 107.71 10.2633 107.944 10.9023C108.31 11.9019 108.683 12.8991 109.079 13.9488Z" fill="#6C66F1"/>
<path d="M63.7464 20.5186C63.7462 22.5237 63.7462 24.4545 63.7462 26.46C62.3249 26.46 60.9656 26.46 59.5822 26.46C59.5822 26.0197 59.5853 25.6288 59.5817 25.2379C59.5636 23.279 59.5127 21.3198 59.536 19.3615C59.5504 18.1511 59.5591 16.9199 59.7784 15.7372C60.172 13.6142 61.2782 11.8755 63.2316 10.8954C65.8256 9.59387 68.5137 9.43841 71.2189 10.6347C73.2722 11.5428 74.3133 13.2412 74.8023 15.3422C74.9468 15.9632 74.9907 16.6194 74.9952 17.2601C75.0158 20.2365 75.0066 23.2131 75.0061 26.1895C75.0061 26.2602 74.9834 26.3309 74.9619 26.4559C73.5972 26.4559 72.2345 26.4559 70.8251 26.4559C70.8251 26.1358 70.8251 25.8449 70.8251 25.554C70.8245 23.0241 70.8453 20.4938 70.8082 17.9645C70.7989 17.3337 70.6805 16.6789 70.4772 16.0818C69.9681 14.5864 68.8584 13.8228 67.3574 13.8262C65.8619 13.8296 64.5645 14.7251 64.1029 16.1712C63.9023 16.7997 63.8135 17.4766 63.7638 18.1384C63.7063 18.9031 63.748 19.6753 63.7464 20.5186Z" fill="#6D66F3"/>
<path d="M101.495 18.2843C101.495 21.0355 101.495 23.7123 101.495 26.4775C100.12 26.5423 98.7831 26.5118 97.4019 26.4886C97.3835 26.2569 97.3554 26.0664 97.3553 25.8758C97.3525 19.1805 97.3523 12.4851 97.3519 5.78976C97.3519 5.64098 97.3513 5.49208 97.3566 5.34345C97.3873 4.49656 97.6706 4.07691 98.4831 3.79726C99.4188 3.4752 100.396 3.39316 101.485 3.32781C101.509 8.32203 101.493 13.266 101.495 18.2843Z" fill="#6B64F2"/>
</svg>
