<svg width="12" height="12" viewBox="0 0 12 12" fill="none" xmlns="http://www.w3.org/2000/svg">
<g clip-path="url(#clip0_3_843)">
<path fill-rule="evenodd" clip-rule="evenodd" d="M4.12473 0.981002C4.1352 1.32602 3.86403 1.61422 3.519 1.62472L1.94132 1.67271C1.79592 1.68436 1.68445 1.79584 1.67278 1.94119L1.62472 3.51902C1.61421 3.86405 1.326 4.13522 0.980978 4.12472C0.63596 4.1142 0.364788 3.826 0.375295 3.48097L0.423703 1.89178C0.423885 1.8858 0.424153 1.87983 0.424505 1.87387C0.47086 1.09085 1.09112 0.470715 1.8741 0.424432C1.88005 0.42408 1.88601 0.423812 1.89198 0.423632L3.481 0.375295C3.82603 0.3648 4.11423 0.635985 4.12473 0.981002ZM8.481 1.62472C8.13597 1.61422 7.8648 1.32602 7.8753 0.981002C7.8858 0.635985 8.174 0.3648 8.519 0.375295L10.108 0.423632C10.114 0.423812 10.12 0.42408 10.1259 0.424432C10.9089 0.470715 11.5292 1.09085 11.5755 1.87387C11.5758 1.87983 11.5761 1.8858 11.5763 1.89178L11.6247 3.48097C11.6352 3.826 11.364 4.1142 11.019 4.12472C10.674 4.13522 10.3858 3.86405 10.3753 3.51902L10.3272 1.94119C10.3156 1.79584 10.2041 1.68436 10.0587 1.67271L8.481 1.62472ZM11.6247 8.51902C11.6352 8.17403 11.364 7.8858 11.019 7.8753C10.674 7.86477 10.3858 8.13595 10.3753 8.48098L10.3272 10.0588C10.3156 10.2042 10.2041 10.3156 10.0587 10.3273L8.481 10.3753C8.13597 10.3858 7.8648 10.674 7.8753 11.019C7.8858 11.364 8.174 11.6352 8.519 11.6247L10.108 11.5764C10.114 11.5762 10.12 11.5759 10.1259 11.5756C10.9089 11.5293 11.5292 10.9092 11.5755 10.1262L11.5758 10.1201L11.5761 10.1145L11.5763 10.1082L11.6247 8.51902ZM0.375295 8.51902C0.364788 8.17403 0.63596 7.8858 0.980978 7.8753C1.326 7.86477 1.61421 8.13595 1.62472 8.48098L1.67278 10.0588C1.68445 10.2042 1.79592 10.3156 1.94132 10.3273L3.519 10.3753C3.86403 10.3858 4.1352 10.674 4.12473 11.019C4.11423 11.364 3.82603 11.6352 3.481 11.6247L1.89198 11.5764C1.88601 11.5762 1.88005 11.5759 1.8741 11.5756C1.09112 11.5293 0.47086 10.9092 0.424505 10.1262C0.424153 10.1202 0.423885 10.1142 0.423703 10.1082L0.375295 8.51902ZM5.375 2.375C3.71815 2.375 2.375 3.71815 2.375 5.375C2.375 7.03185 3.71815 8.375 5.375 8.375C5.89875 8.375 6.39115 8.24077 6.81968 8.00487C6.88223 8.07977 6.94418 8.1545 7.00603 8.22915L7.0109 8.23502C7.25855 8.5338 7.50525 8.8312 7.77965 9.12498C8.09168 9.45903 8.5806 9.5091 8.92307 9.18155C9.00462 9.10357 9.1034 9.0048 9.18137 8.92325C9.5089 8.58078 9.45885 8.09185 9.12477 7.77982C8.83103 7.50542 8.53363 7.25872 8.23483 7.01107L8.22903 7.00625C8.1544 6.9444 8.07965 6.88245 8.00475 6.8199C8.24075 6.39132 8.375 5.89885 8.375 5.375C8.375 3.71815 7.03185 2.375 5.375 2.375ZM7.25 5.375C7.25 6.41052 6.41053 7.25 5.375 7.25C4.33948 7.25 3.5 6.41052 3.5 5.375C3.5 4.33947 4.33948 3.5 5.375 3.5C6.41053 3.5 7.25 4.33947 7.25 5.375Z" fill="url(#paint0_linear_3_843)"/>
</g>
<defs>
<linearGradient id="paint0_linear_3_843" x1="12.6" y1="14.0077" x2="-2.57475" y2="3.22875" gradientUnits="userSpaceOnUse">
<stop stop-color="#B388FF"/>
<stop offset="1" stop-color="#3EA8FF"/>
</linearGradient>
<clipPath id="clip0_3_843">
<rect width="12" height="12" fill="white"/>
</clipPath>
</defs>
</svg>
