<svg width="11" height="12" viewBox="0 0 11 12" fill="none" xmlns="http://www.w3.org/2000/svg">
<path fill-rule="evenodd" clip-rule="evenodd" d="M3.2159 1.27378C3.58897 0.504297 4.37385 0 5.25007 0C6.12627 0 6.91118 0.504295 7.28425 1.27379C8.18065 1.29495 8.87387 1.32591 9.29722 1.34812C9.6525 1.36676 10.038 1.51999 10.2395 1.88342C10.3299 2.04635 10.4206 2.2535 10.4783 2.4986C10.4944 2.56698 10.5 2.6338 10.5 2.6956C10.5 3.18088 10.1359 3.59427 9.64097 3.62932C8.9095 3.68112 7.51162 3.75 5.2502 3.75C2.98865 3.75 1.59059 3.6811 0.859033 3.62932C0.364043 3.59427 0 3.18088 0 2.6956C0 2.6338 0.00558997 2.56698 0.021705 2.4986C0.07946 2.2535 0.17011 2.04635 0.260442 1.88342C0.461948 1.51999 0.847497 1.36676 1.20277 1.34812C1.62615 1.32591 2.31942 1.29495 3.2159 1.27378ZM1.03448 4.2652C0.9648 4.2606 0.896378 4.28537 0.845778 4.3335C0.795178 4.38162 0.767013 4.4487 0.768098 4.51853C0.80236 6.7238 0.878425 8.60938 0.934237 9.77213C0.974665 10.6144 1.61915 11.3022 2.46583 11.373C3.22123 11.4362 4.23485 11.5001 5.2503 11.5001C6.26565 11.5001 7.27908 11.4363 8.03435 11.3731C8.881 11.3022 9.52545 10.6144 9.56588 9.77215C9.6217 8.60943 9.69775 6.72382 9.73203 4.51855C9.7331 4.44872 9.70495 4.38162 9.65435 4.3335C9.60375 4.28537 9.53532 4.26063 9.46565 4.2652C8.71395 4.31465 7.36325 4.37507 5.25028 4.37507C3.13715 4.37507 1.78627 4.31465 1.03448 4.2652ZM3.73758 5.62528C3.94455 5.61838 4.11795 5.78058 4.12485 5.98758L4.24985 9.73757C4.25675 9.94455 4.09455 10.118 3.88755 10.1249C3.68055 10.1318 3.50718 9.96955 3.50028 9.76255L3.37528 6.01255C3.36838 5.80555 3.53058 5.63218 3.73758 5.62528ZM6.76255 5.62528C6.96955 5.63218 7.13175 5.80555 7.12485 6.01255L6.99985 9.76255C6.99295 9.96955 6.81955 10.1318 6.61258 10.1249C6.40558 10.118 6.24338 9.94455 6.25028 9.73757L6.37528 5.98758C6.38218 5.78058 6.55555 5.61838 6.76255 5.62528Z" fill="url(#paint0_linear_3_825)"/>
<defs>
<linearGradient id="paint0_linear_3_825" x1="0.4035" y1="0.92925" x2="12.8707" y2="7.345" gradientUnits="userSpaceOnUse">
<stop stop-color="#6C63FF"/>
<stop offset="1" stop-color="#43D9A2"/>
</linearGradient>
</defs>
</svg>
